<?xml version="1.0" encoding="UTF-8" standalone="no"?>
<!DOCTYPE svg PUBLIC "-//W3C//DTD SVG 1.1//EN"
 "http://www.w3.org/Graphics/SVG/1.1/DTD/svg11.dtd">
<!-- Generated by graphviz version 2.38.0 (20140413.2041)
 -->
<!-- Title: cpt2 Pages: 1 -->
<svg width="164pt" height="66pt"
 viewBox="0.00 0.00 164.00 66.00" xmlns="http://www.w3.org/2000/svg" xmlns:xlink="http://www.w3.org/1999/xlink">
<g id="graph0" class="graph" transform="scale(1 1) rotate(0) translate(4 62)">
<title>cpt2</title>
<polygon fill="white" stroke="none" points="-4,4 -4,-62 160,-62 160,4 -4,4"/>
<!-- Node1 -->
<g id="node1" class="node"><title>Node1</title>
<polygon fill="#bfbfbf" stroke="black" points="0,-19.5 0,-38.5 35,-38.5 35,-19.5 0,-19.5"/>
<text text-anchor="middle" x="17.5" y="-26.5" font-family="Helvetica,sans-Serif" font-size="10.00">cpt2</text>
</g>
<!-- Node2 -->
<g id="node2" class="node"><title>Node2</title>
<g id="a_node2"><a xlink:href="group__doers.html#gad0e3b2b69516341289fa5d05bec700bd" target="_top" xlink:title="Part of the NADCON5 process, generates gmtbat03 ">
<polygon fill="white" stroke="black" points="71,-38.5 71,-57.5 156,-57.5 156,-38.5 71,-38.5"/>
<text text-anchor="middle" x="113.5" y="-45.5" font-family="Helvetica,sans-Serif" font-size="10.00">makeplotfiles02</text>
</a>
</g>
</g>
<!-- Node1&#45;&gt;Node2 -->
<g id="edge1" class="edge"><title>Node1&#45;&gt;Node2</title>
<path fill="none" stroke="midnightblue" d="M45.1456,-34.3858C53.1351,-36.0007 62.0973,-37.8122 70.8127,-39.5738"/>
<polygon fill="midnightblue" stroke="midnightblue" points="45.8005,-30.9475 35.3053,-32.3968 44.4136,-37.8087 45.8005,-30.9475"/>
</g>
<!-- Node3 -->
<g id="node3" class="node"><title>Node3</title>
<g id="a_node3"><a xlink:href="group__doers.html#ga5ba1fe4d681ced83528f69e465a2676f" target="_top" xlink:title="Part of the NADCON5 process, generates gmtbat06 ">
<polygon fill="white" stroke="black" points="71,-0.5 71,-19.5 156,-19.5 156,-0.5 71,-0.5"/>
<text text-anchor="middle" x="113.5" y="-7.5" font-family="Helvetica,sans-Serif" font-size="10.00">makeplotfiles03</text>
</a>
</g>
</g>
<!-- Node1&#45;&gt;Node3 -->
<g id="edge2" class="edge"><title>Node1&#45;&gt;Node3</title>
<path fill="none" stroke="midnightblue" d="M45.1456,-23.6142C53.1351,-21.9993 62.0973,-20.1878 70.8127,-18.4262"/>
<polygon fill="midnightblue" stroke="midnightblue" points="44.4136,-20.1913 35.3053,-25.6032 45.8005,-27.0525 44.4136,-20.1913"/>
</g>
</g>
</svg>
