<?xml version="1.0" encoding="UTF-8" standalone="no"?>
<!DOCTYPE svg PUBLIC "-//W3C//DTD SVG 1.1//EN"
 "http://www.w3.org/Graphics/SVG/1.1/DTD/svg11.dtd">
<!-- Generated by graphviz version 2.38.0 (20140413.2041)
 -->
<!-- Title: checkgrid Pages: 1 -->
<svg width="275pt" height="294pt"
 viewBox="0.00 0.00 275.00 294.00" xmlns="http://www.w3.org/2000/svg" xmlns:xlink="http://www.w3.org/1999/xlink">
<g id="graph0" class="graph" transform="scale(1 1) rotate(0) translate(4 290)">
<title>checkgrid</title>
<polygon fill="white" stroke="none" points="-4,4 -4,-290 271,-290 271,4 -4,4"/>
<!-- Node1 -->
<g id="node1" class="node"><title>Node1</title>
<polygon fill="#bfbfbf" stroke="black" points="0,-133.5 0,-152.5 59,-152.5 59,-133.5 0,-133.5"/>
<text text-anchor="middle" x="29.5" y="-140.5" font-family="Helvetica,sans-Serif" font-size="10.00">checkgrid</text>
</g>
<!-- Node2 -->
<g id="node2" class="node"><title>Node2</title>
<g id="a_node2"><a xlink:href="group__core.html#ga27ef6de6cc481c624a5558b20c38ba04" target="_top" xlink:title="Subroutine to perform a 2&#45;D cubic (&quot;bicubic&quot;) interpolation. ">
<polygon fill="white" stroke="black" points="111.5,-266.5 111.5,-285.5 158.5,-285.5 158.5,-266.5 111.5,-266.5"/>
<text text-anchor="middle" x="135" y="-273.5" font-family="Helvetica,sans-Serif" font-size="10.00">bicubic</text>
</a>
</g>
</g>
<!-- Node1&#45;&gt;Node2 -->
<g id="edge1" class="edge"><title>Node1&#45;&gt;Node2</title>
<path fill="none" stroke="midnightblue" d="M33.6525,-152.506C41.1365,-173.79 61.8667,-225.846 95,-257 97.2857,-259.149 99.8601,-261.102 102.569,-262.865"/>
<polygon fill="midnightblue" stroke="midnightblue" points="101.054,-266.029 111.489,-267.862 104.475,-259.921 101.054,-266.029"/>
</g>
<!-- Node3 -->
<g id="node3" class="node"><title>Node3</title>
<g id="a_node3"><a xlink:href="group__core.html#gaf9228c4b11b96e50bee68421e66ed412" target="_top" xlink:title="Subroutine to perform bilinear interpolation. ">
<polygon fill="white" stroke="black" points="118,-228.5 118,-247.5 152,-247.5 152,-228.5 118,-228.5"/>
<text text-anchor="middle" x="135" y="-235.5" font-family="Helvetica,sans-Serif" font-size="10.00">bilin</text>
</a>
</g>
</g>
<!-- Node1&#45;&gt;Node3 -->
<g id="edge2" class="edge"><title>Node1&#45;&gt;Node3</title>
<path fill="none" stroke="midnightblue" d="M36.6274,-152.512C47.0468,-168.085 69.5753,-199.259 95,-219 99.2052,-222.265 104.062,-225.176 108.889,-227.679"/>
<polygon fill="midnightblue" stroke="midnightblue" points="107.422,-230.856 117.957,-231.975 110.419,-224.53 107.422,-230.856"/>
</g>
<!-- Node4 -->
<g id="node4" class="node"><title>Node4</title>
<g id="a_node4"><a xlink:href="group__core.html#gab451c989dfed05b90b17f4005dd5133a" target="_top" xlink:title="Subroutine to perform a 2&#45;D quadratic (&quot;biquadratic&quot;) interpolation. ">
<polygon fill="white" stroke="black" points="112.5,-190.5 112.5,-209.5 157.5,-209.5 157.5,-190.5 112.5,-190.5"/>
<text text-anchor="middle" x="135" y="-197.5" font-family="Helvetica,sans-Serif" font-size="10.00">biquad</text>
</a>
</g>
</g>
<!-- Node1&#45;&gt;Node4 -->
<g id="edge3" class="edge"><title>Node1&#45;&gt;Node4</title>
<path fill="none" stroke="midnightblue" d="M45.9435,-152.564C58.8886,-160.468 77.9397,-171.837 95,-181 98.0791,-182.654 101.323,-184.332 104.572,-185.972"/>
<polygon fill="midnightblue" stroke="midnightblue" points="103.089,-189.143 113.604,-190.439 106.192,-182.869 103.089,-189.143"/>
</g>
<!-- Node5 -->
<g id="node5" class="node"><title>Node5</title>
<g id="a_node5"><a xlink:href="group__core.html#ga82c09d84f1af66481bc8e975f3f986ae" target="_top" xlink:title="Subroutine to make GMT calls to do a B/W vector plot. ">
<polygon fill="white" stroke="black" points="107,-152.5 107,-171.5 163,-171.5 163,-152.5 107,-152.5"/>
<text text-anchor="middle" x="135" y="-159.5" font-family="Helvetica,sans-Serif" font-size="10.00">bwplotvc</text>
</a>
</g>
</g>
<!-- Node1&#45;&gt;Node5 -->
<g id="edge4" class="edge"><title>Node1&#45;&gt;Node5</title>
<path fill="none" stroke="midnightblue" d="M59.0558,-148.242C70.7423,-150.387 84.4185,-152.898 96.8658,-155.183"/>
<polygon fill="midnightblue" stroke="midnightblue" points="96.4942,-158.673 106.962,-157.036 97.7582,-151.788 96.4942,-158.673"/>
</g>
<!-- Node7 -->
<g id="node7" class="node"><title>Node7</title>
<g id="a_node7"><a xlink:href="group__core.html#ga456c2747eddc4e9792e9c052fc3dfb2a" target="_top" xlink:title="Subroutine to collect up the GRID boundaries for use in creating NADCON 5. ">
<polygon fill="white" stroke="black" points="96.5,-114.5 96.5,-133.5 173.5,-133.5 173.5,-114.5 96.5,-114.5"/>
<text text-anchor="middle" x="135" y="-121.5" font-family="Helvetica,sans-Serif" font-size="10.00">getgridbounds</text>
</a>
</g>
</g>
<!-- Node1&#45;&gt;Node7 -->
<g id="edge6" class="edge"><title>Node1&#45;&gt;Node7</title>
<path fill="none" stroke="midnightblue" d="M59.0558,-137.758C67.4925,-136.209 76.9662,-134.47 86.2659,-132.763"/>
<polygon fill="midnightblue" stroke="midnightblue" points="87.0278,-136.181 96.2314,-130.933 85.7638,-129.297 87.0278,-136.181"/>
</g>
<!-- Node8 -->
<g id="node8" class="node"><title>Node8</title>
<g id="a_node8"><a xlink:href="group__core.html#ga34660db69356d6ab42d986fc2f85d158" target="_top" xlink:title="Subroutine to collect up the MAP boundaries for use in creating NADCON 5. ">
<polygon fill="white" stroke="black" points="95,-76.5 95,-95.5 175,-95.5 175,-76.5 95,-76.5"/>
<text text-anchor="middle" x="135" y="-83.5" font-family="Helvetica,sans-Serif" font-size="10.00">getmapbounds</text>
</a>
</g>
</g>
<!-- Node1&#45;&gt;Node8 -->
<g id="edge7" class="edge"><title>Node1&#45;&gt;Node8</title>
<path fill="none" stroke="midnightblue" d="M45.9435,-133.436C58.8886,-125.532 77.9397,-114.163 95,-105 98.0791,-103.346 101.323,-101.668 104.572,-100.028"/>
<polygon fill="midnightblue" stroke="midnightblue" points="106.192,-103.131 113.604,-95.5605 103.089,-96.8566 106.192,-103.131"/>
</g>
<!-- Node9 -->
<g id="node9" class="node"><title>Node9</title>
<g id="a_node9"><a xlink:href="checkgrid_8f.html#af43ed26cd341c8becbfac5d48d636924" target="_top" xlink:title="nlines">
<polygon fill="white" stroke="black" points="114,-38.5 114,-57.5 156,-57.5 156,-38.5 114,-38.5"/>
<text text-anchor="middle" x="135" y="-45.5" font-family="Helvetica,sans-Serif" font-size="10.00">nlines</text>
</a>
</g>
</g>
<!-- Node1&#45;&gt;Node9 -->
<g id="edge8" class="edge"><title>Node1&#45;&gt;Node9</title>
<path fill="none" stroke="midnightblue" d="M36.6274,-133.488C47.0468,-117.915 69.5753,-86.7405 95,-67 97.9708,-64.6934 101.267,-62.5637 104.647,-60.6297"/>
<polygon fill="midnightblue" stroke="midnightblue" points="106.359,-63.6849 113.631,-55.9801 103.141,-57.4682 106.359,-63.6849"/>
</g>
<!-- Node10 -->
<g id="node10" class="node"><title>Node10</title>
<g id="a_node10"><a xlink:href="group__core.html#gadc5c9acc8aedbc27aa45d5a78980e6d0" target="_top" xlink:title="Function to round a digit to one significant figure (one non zero digit), double precision. ">
<polygon fill="white" stroke="black" points="113.5,-0.5 113.5,-19.5 156.5,-19.5 156.5,-0.5 113.5,-0.5"/>
<text text-anchor="middle" x="135" y="-7.5" font-family="Helvetica,sans-Serif" font-size="10.00">onzd2</text>
</a>
</g>
</g>
<!-- Node1&#45;&gt;Node10 -->
<g id="edge9" class="edge"><title>Node1&#45;&gt;Node10</title>
<path fill="none" stroke="midnightblue" d="M33.6525,-133.494C41.1365,-112.21 61.8667,-60.1544 95,-29 97.7401,-26.4236 100.895,-24.1294 104.199,-22.1052"/>
<polygon fill="midnightblue" stroke="midnightblue" points="105.922,-25.1535 113.11,-17.3699 102.637,-18.9721 105.922,-25.1535"/>
</g>
<!-- Node6 -->
<g id="node6" class="node"><title>Node6</title>
<g id="a_node6"><a xlink:href="group__core.html#ga43be1e80c0bde6748f414d2eee05603f" target="_top" xlink:title="Subroutine to write GMT&#45;based commands to create a shoreline Write GMT&#45;based commands to create a sho...">
<polygon fill="white" stroke="black" points="211,-152.5 211,-171.5 267,-171.5 267,-152.5 211,-152.5"/>
<text text-anchor="middle" x="239" y="-159.5" font-family="Helvetica,sans-Serif" font-size="10.00">plotcoast</text>
</a>
</g>
</g>
<!-- Node5&#45;&gt;Node6 -->
<g id="edge5" class="edge"><title>Node5&#45;&gt;Node6</title>
<path fill="none" stroke="midnightblue" d="M163.066,-162C174.594,-162 188.231,-162 200.69,-162"/>
<polygon fill="midnightblue" stroke="midnightblue" points="200.807,-165.5 210.807,-162 200.807,-158.5 200.807,-165.5"/>
</g>
</g>
</svg>
