<?xml version="1.0" encoding="UTF-8" standalone="no"?>
<!DOCTYPE svg PUBLIC "-//W3C//DTD SVG 1.1//EN"
 "http://www.w3.org/Graphics/SVG/1.1/DTD/svg11.dtd">
<!-- Generated by graphviz version 2.38.0 (20140413.2041)
 -->
<!-- Title: makeplotfiles02 Pages: 1 -->
<svg width="301pt" height="370pt"
 viewBox="0.00 0.00 301.00 370.00" xmlns="http://www.w3.org/2000/svg" xmlns:xlink="http://www.w3.org/1999/xlink">
<g id="graph0" class="graph" transform="scale(1 1) rotate(0) translate(4 366)">
<title>makeplotfiles02</title>
<polygon fill="white" stroke="none" points="-4,4 -4,-366 297,-366 297,4 -4,4"/>
<!-- Node1 -->
<g id="node1" class="node"><title>Node1</title>
<polygon fill="#bfbfbf" stroke="black" points="0,-171.5 0,-190.5 85,-190.5 85,-171.5 0,-171.5"/>
<text text-anchor="middle" x="42.5" y="-178.5" font-family="Helvetica,sans-Serif" font-size="10.00">makeplotfiles02</text>
</g>
<!-- Node2 -->
<g id="node2" class="node"><title>Node2</title>
<g id="a_node2"><a xlink:href="group__core.html#ga6d046a9be31aa1d9b69abd6eb6117294" target="_top" xlink:title="Subroutine to make GMT calls to do a B/W coverage plot. ">
<polygon fill="white" stroke="black" points="133,-342.5 133,-361.5 189,-361.5 189,-342.5 133,-342.5"/>
<text text-anchor="middle" x="161" y="-349.5" font-family="Helvetica,sans-Serif" font-size="10.00">bwplotcv</text>
</a>
</g>
</g>
<!-- Node1&#45;&gt;Node2 -->
<g id="edge1" class="edge"><title>Node1&#45;&gt;Node2</title>
<path fill="none" stroke="midnightblue" d="M46.1226,-190.853C53.5811,-217.173 77.2512,-290.039 121,-333 122.411,-334.385 123.942,-335.686 125.555,-336.905"/>
<polygon fill="midnightblue" stroke="midnightblue" points="123.792,-339.932 134.11,-342.335 127.542,-334.022 123.792,-339.932"/>
</g>
<!-- Node4 -->
<g id="node4" class="node"><title>Node4</title>
<g id="a_node4"><a xlink:href="group__core.html#ga82c09d84f1af66481bc8e975f3f986ae" target="_top" xlink:title="Subroutine to make GMT calls to do a B/W vector plot. ">
<polygon fill="white" stroke="black" points="133,-304.5 133,-323.5 189,-323.5 189,-304.5 133,-304.5"/>
<text text-anchor="middle" x="161" y="-311.5" font-family="Helvetica,sans-Serif" font-size="10.00">bwplotvc</text>
</a>
</g>
</g>
<!-- Node1&#45;&gt;Node4 -->
<g id="edge3" class="edge"><title>Node1&#45;&gt;Node4</title>
<path fill="none" stroke="midnightblue" d="M47.9602,-190.802C58.1353,-212.233 84.9933,-263.829 121,-295 122.712,-296.482 124.559,-297.878 126.487,-299.187"/>
<polygon fill="midnightblue" stroke="midnightblue" points="124.89,-302.309 135.282,-304.376 128.447,-296.28 124.89,-302.309"/>
</g>
<!-- Node5 -->
<g id="node5" class="node"><title>Node5</title>
<g id="a_node5"><a xlink:href="group__core.html#ga44465308a9701d8ffe256715e4f01215" target="_top" xlink:title="Subroutine to make GMT calls to do Color Raster Rendering of Gridded Data. ">
<polygon fill="white" stroke="black" points="139.5,-266.5 139.5,-285.5 182.5,-285.5 182.5,-266.5 139.5,-266.5"/>
<text text-anchor="middle" x="161" y="-273.5" font-family="Helvetica,sans-Serif" font-size="10.00">coplot</text>
</a>
</g>
</g>
<!-- Node1&#45;&gt;Node5 -->
<g id="edge5" class="edge"><title>Node1&#45;&gt;Node5</title>
<path fill="none" stroke="midnightblue" d="M51.7196,-190.91C65.0269,-206.493 92.6685,-237.009 121,-257 123.919,-259.06 127.096,-261.009 130.334,-262.817"/>
<polygon fill="midnightblue" stroke="midnightblue" points="128.968,-266.05 139.461,-267.516 132.172,-259.827 128.968,-266.05"/>
</g>
<!-- Node6 -->
<g id="node6" class="node"><title>Node6</title>
<g id="a_node6"><a xlink:href="group__core.html#gacc3bebf5d61250a63b6d444e4514ad88" target="_top" xlink:title="Subroutine to make GMT calls to do a color raster rendering of gridded data, with coverage overlaid...">
<polygon fill="white" stroke="black" points="130.5,-228.5 130.5,-247.5 191.5,-247.5 191.5,-228.5 130.5,-228.5"/>
<text text-anchor="middle" x="161" y="-235.5" font-family="Helvetica,sans-Serif" font-size="10.00">coplotwcv</text>
</a>
</g>
</g>
<!-- Node1&#45;&gt;Node6 -->
<g id="edge7" class="edge"><title>Node1&#45;&gt;Node6</title>
<path fill="none" stroke="midnightblue" d="M62.9218,-190.54C78.5929,-198.233 101.209,-209.327 121,-219 124.21,-220.569 127.569,-222.209 130.913,-223.839"/>
<polygon fill="midnightblue" stroke="midnightblue" points="129.632,-227.109 140.155,-228.344 132.699,-220.816 129.632,-227.109"/>
</g>
<!-- Node7 -->
<g id="node7" class="node"><title>Node7</title>
<g id="a_node7"><a xlink:href="group__core.html#ga0a01789413f4554c379979dc8ef36768" target="_top" xlink:title="This subroutine generates the color pallette variables for a GMT color plot. ">
<polygon fill="white" stroke="black" points="146,-190.5 146,-209.5 176,-209.5 176,-190.5 146,-190.5"/>
<text text-anchor="middle" x="161" y="-197.5" font-family="Helvetica,sans-Serif" font-size="10.00">cpt</text>
</a>
</g>
</g>
<!-- Node1&#45;&gt;Node7 -->
<g id="edge9" class="edge"><title>Node1&#45;&gt;Node7</title>
<path fill="none" stroke="midnightblue" d="M85.2301,-187.806C102.191,-190.572 121.189,-193.67 135.791,-196.052"/>
<polygon fill="midnightblue" stroke="midnightblue" points="135.561,-199.56 145.994,-197.716 136.687,-192.652 135.561,-199.56"/>
</g>
<!-- Node8 -->
<g id="node8" class="node"><title>Node8</title>
<g id="a_node8"><a xlink:href="group__core.html#gadc3e084679aba567131d58415054bd59" target="_top" xlink:title="This subroutine generates the color pallette variables for a GMT color plot. ">
<polygon fill="white" stroke="black" points="143.5,-152.5 143.5,-171.5 178.5,-171.5 178.5,-152.5 143.5,-152.5"/>
<text text-anchor="middle" x="161" y="-159.5" font-family="Helvetica,sans-Serif" font-size="10.00">cpt2</text>
</a>
</g>
</g>
<!-- Node1&#45;&gt;Node8 -->
<g id="edge10" class="edge"><title>Node1&#45;&gt;Node8</title>
<path fill="none" stroke="midnightblue" d="M85.2301,-174.194C101.255,-171.581 119.098,-168.671 133.333,-166.349"/>
<polygon fill="midnightblue" stroke="midnightblue" points="134.12,-169.767 143.426,-164.703 132.993,-162.858 134.12,-169.767"/>
</g>
<!-- Node9 -->
<g id="node9" class="node"><title>Node9</title>
<g id="a_node9"><a xlink:href="group__core.html#ga34660db69356d6ab42d986fc2f85d158" target="_top" xlink:title="Subroutine to collect up the MAP boundaries for use in creating NADCON 5. ">
<polygon fill="white" stroke="black" points="121,-114.5 121,-133.5 201,-133.5 201,-114.5 121,-114.5"/>
<text text-anchor="middle" x="161" y="-121.5" font-family="Helvetica,sans-Serif" font-size="10.00">getmapbounds</text>
</a>
</g>
</g>
<!-- Node1&#45;&gt;Node9 -->
<g id="edge11" class="edge"><title>Node1&#45;&gt;Node9</title>
<path fill="none" stroke="midnightblue" d="M62.9218,-171.46C78.5929,-163.767 101.209,-152.673 121,-143 124.21,-141.431 127.569,-139.791 130.913,-138.161"/>
<polygon fill="midnightblue" stroke="midnightblue" points="132.699,-141.184 140.155,-133.656 129.632,-134.891 132.699,-141.184"/>
</g>
<!-- Node10 -->
<g id="node10" class="node"><title>Node10</title>
<g id="a_node10"><a xlink:href="group__core.html#ga1593f511d0df7cf215e5eb55d297e515" target="_top" xlink:title="Subroutine to print grid statistics to stdout. ">
<polygon fill="white" stroke="black" points="134,-76.5 134,-95.5 188,-95.5 188,-76.5 134,-76.5"/>
<text text-anchor="middle" x="161" y="-83.5" font-family="Helvetica,sans-Serif" font-size="10.00">gridstats</text>
</a>
</g>
</g>
<!-- Node1&#45;&gt;Node10 -->
<g id="edge12" class="edge"><title>Node1&#45;&gt;Node10</title>
<path fill="none" stroke="midnightblue" d="M51.7196,-171.09C65.0269,-155.507 92.6685,-124.991 121,-105 123.231,-103.426 125.612,-101.917 128.056,-100.485"/>
<polygon fill="midnightblue" stroke="midnightblue" points="129.873,-103.483 137.026,-95.6675 126.56,-97.3158 129.873,-103.483"/>
</g>
<!-- Node11 -->
<g id="node11" class="node"><title>Node11</title>
<g id="a_node11"><a xlink:href="group__core.html#gadc5c9acc8aedbc27aa45d5a78980e6d0" target="_top" xlink:title="Function to round a digit to one significant figure (one non zero digit), double precision. ">
<polygon fill="white" stroke="black" points="139.5,-38.5 139.5,-57.5 182.5,-57.5 182.5,-38.5 139.5,-38.5"/>
<text text-anchor="middle" x="161" y="-45.5" font-family="Helvetica,sans-Serif" font-size="10.00">onzd2</text>
</a>
</g>
</g>
<!-- Node1&#45;&gt;Node11 -->
<g id="edge13" class="edge"><title>Node1&#45;&gt;Node11</title>
<path fill="none" stroke="midnightblue" d="M47.9602,-171.198C58.1353,-149.767 84.9933,-98.1711 121,-67 123.844,-64.5383 127.062,-62.314 130.4,-60.3282"/>
<polygon fill="midnightblue" stroke="midnightblue" points="132.119,-63.3789 139.344,-55.6293 128.863,-57.1822 132.119,-63.3789"/>
</g>
<!-- Node12 -->
<g id="node12" class="node"><title>Node12</title>
<g id="a_node12"><a xlink:href="group__core.html#ga88bcf2faadec1776f556f062c07ac898" target="_top" xlink:title="Subroutine to tell us how many thinned vectors were used to make a grid. ">
<polygon fill="white" stroke="black" points="134,-0.5 134,-19.5 188,-19.5 188,-0.5 134,-0.5"/>
<text text-anchor="middle" x="161" y="-7.5" font-family="Helvetica,sans-Serif" font-size="10.00">vecstats</text>
</a>
</g>
</g>
<!-- Node1&#45;&gt;Node12 -->
<g id="edge14" class="edge"><title>Node1&#45;&gt;Node12</title>
<path fill="none" stroke="midnightblue" d="M46.1226,-171.147C53.5811,-144.827 77.2512,-71.9609 121,-29 122.411,-27.6148 123.942,-26.3139 125.555,-25.0945"/>
<polygon fill="midnightblue" stroke="midnightblue" points="127.542,-27.9784 134.11,-19.6651 123.792,-22.068 127.542,-27.9784"/>
</g>
<!-- Node3 -->
<g id="node3" class="node"><title>Node3</title>
<g id="a_node3"><a xlink:href="group__core.html#ga43be1e80c0bde6748f414d2eee05603f" target="_top" xlink:title="Subroutine to write GMT&#45;based commands to create a shoreline Write GMT&#45;based commands to create a sho...">
<polygon fill="white" stroke="black" points="237,-285.5 237,-304.5 293,-304.5 293,-285.5 237,-285.5"/>
<text text-anchor="middle" x="265" y="-292.5" font-family="Helvetica,sans-Serif" font-size="10.00">plotcoast</text>
</a>
</g>
</g>
<!-- Node2&#45;&gt;Node3 -->
<g id="edge2" class="edge"><title>Node2&#45;&gt;Node3</title>
<path fill="none" stroke="midnightblue" d="M182.417,-342.478C188.457,-339.548 195.045,-336.238 201,-333 214.193,-325.826 228.556,-317.227 240.231,-310.024"/>
<polygon fill="midnightblue" stroke="midnightblue" points="242.304,-312.857 248.945,-304.601 238.606,-306.913 242.304,-312.857"/>
</g>
<!-- Node4&#45;&gt;Node3 -->
<g id="edge4" class="edge"><title>Node4&#45;&gt;Node3</title>
<path fill="none" stroke="midnightblue" d="M189.066,-308.958C200.594,-306.811 214.231,-304.271 226.69,-301.95"/>
<polygon fill="midnightblue" stroke="midnightblue" points="227.617,-305.337 236.807,-300.065 226.335,-298.456 227.617,-305.337"/>
</g>
<!-- Node5&#45;&gt;Node3 -->
<g id="edge6" class="edge"><title>Node5&#45;&gt;Node3</title>
<path fill="none" stroke="midnightblue" d="M182.641,-279.845C195.317,-282.206 211.927,-285.3 226.831,-288.076"/>
<polygon fill="midnightblue" stroke="midnightblue" points="226.336,-291.544 236.808,-289.935 227.618,-284.663 226.336,-291.544"/>
</g>
<!-- Node6&#45;&gt;Node3 -->
<g id="edge8" class="edge"><title>Node6&#45;&gt;Node3</title>
<path fill="none" stroke="midnightblue" d="M182.417,-247.522C188.457,-250.452 195.045,-253.762 201,-257 214.193,-264.174 228.556,-272.773 240.231,-279.976"/>
<polygon fill="midnightblue" stroke="midnightblue" points="238.606,-283.087 248.945,-285.399 242.304,-277.143 238.606,-283.087"/>
</g>
</g>
</svg>
