<?xml version="1.0" encoding="UTF-8" standalone="no"?>
<!DOCTYPE svg PUBLIC "-//W3C//DTD SVG 1.1//EN"
 "http://www.w3.org/Graphics/SVG/1.1/DTD/svg11.dtd">
<!-- Generated by graphviz version 2.38.0 (20140413.2041)
 -->
<!-- Title: makeplotfiles03 Pages: 1 -->
<svg width="301pt" height="256pt"
 viewBox="0.00 0.00 301.00 256.00" xmlns="http://www.w3.org/2000/svg" xmlns:xlink="http://www.w3.org/1999/xlink">
<g id="graph0" class="graph" transform="scale(1 1) rotate(0) translate(4 252)">
<title>makeplotfiles03</title>
<polygon fill="white" stroke="none" points="-4,4 -4,-252 297,-252 297,4 -4,4"/>
<!-- Node1 -->
<g id="node1" class="node"><title>Node1</title>
<polygon fill="#bfbfbf" stroke="black" points="0,-114.5 0,-133.5 85,-133.5 85,-114.5 0,-114.5"/>
<text text-anchor="middle" x="42.5" y="-121.5" font-family="Helvetica,sans-Serif" font-size="10.00">makeplotfiles03</text>
</g>
<!-- Node2 -->
<g id="node2" class="node"><title>Node2</title>
<g id="a_node2"><a xlink:href="group__core.html#ga6d046a9be31aa1d9b69abd6eb6117294" target="_top" xlink:title="Subroutine to make GMT calls to do a B/W coverage plot. ">
<polygon fill="white" stroke="black" points="133,-228.5 133,-247.5 189,-247.5 189,-228.5 133,-228.5"/>
<text text-anchor="middle" x="161" y="-235.5" font-family="Helvetica,sans-Serif" font-size="10.00">bwplotcv</text>
</a>
</g>
</g>
<!-- Node1&#45;&gt;Node2 -->
<g id="edge1" class="edge"><title>Node1&#45;&gt;Node2</title>
<path fill="none" stroke="midnightblue" d="M49.2397,-133.506C60.8149,-152.024 88.6316,-193.36 121,-219 122.823,-220.444 124.773,-221.816 126.794,-223.112"/>
<polygon fill="midnightblue" stroke="midnightblue" points="125.502,-226.404 135.926,-228.301 128.96,-220.318 125.502,-226.404"/>
</g>
<!-- Node4 -->
<g id="node4" class="node"><title>Node4</title>
<g id="a_node4"><a xlink:href="group__core.html#ga82c09d84f1af66481bc8e975f3f986ae" target="_top" xlink:title="Subroutine to make GMT calls to do a B/W vector plot. ">
<polygon fill="white" stroke="black" points="133,-190.5 133,-209.5 189,-209.5 189,-190.5 133,-190.5"/>
<text text-anchor="middle" x="161" y="-197.5" font-family="Helvetica,sans-Serif" font-size="10.00">bwplotvc</text>
</a>
</g>
</g>
<!-- Node1&#45;&gt;Node4 -->
<g id="edge3" class="edge"><title>Node1&#45;&gt;Node4</title>
<path fill="none" stroke="midnightblue" d="M55.1158,-133.583C69.8817,-145.516 96.4155,-166.138 121,-181 123.685,-182.623 126.529,-184.221 129.408,-185.759"/>
<polygon fill="midnightblue" stroke="midnightblue" points="128.08,-189.01 138.58,-190.425 131.254,-182.771 128.08,-189.01"/>
</g>
<!-- Node5 -->
<g id="node5" class="node"><title>Node5</title>
<g id="a_node5"><a xlink:href="group__core.html#ga44465308a9701d8ffe256715e4f01215" target="_top" xlink:title="Subroutine to make GMT calls to do Color Raster Rendering of Gridded Data. ">
<polygon fill="white" stroke="black" points="139.5,-152.5 139.5,-171.5 182.5,-171.5 182.5,-152.5 139.5,-152.5"/>
<text text-anchor="middle" x="161" y="-159.5" font-family="Helvetica,sans-Serif" font-size="10.00">coplot</text>
</a>
</g>
</g>
<!-- Node1&#45;&gt;Node5 -->
<g id="edge5" class="edge"><title>Node1&#45;&gt;Node5</title>
<path fill="none" stroke="midnightblue" d="M72.8979,-133.589C90.253,-139.25 112.179,-146.402 129.691,-152.114"/>
<polygon fill="midnightblue" stroke="midnightblue" points="128.831,-155.515 139.424,-155.288 131.002,-148.86 128.831,-155.515"/>
</g>
<!-- Node6 -->
<g id="node6" class="node"><title>Node6</title>
<g id="a_node6"><a xlink:href="group__core.html#gadc3e084679aba567131d58415054bd59" target="_top" xlink:title="This subroutine generates the color pallette variables for a GMT color plot. ">
<polygon fill="white" stroke="black" points="143.5,-114.5 143.5,-133.5 178.5,-133.5 178.5,-114.5 143.5,-114.5"/>
<text text-anchor="middle" x="161" y="-121.5" font-family="Helvetica,sans-Serif" font-size="10.00">cpt2</text>
</a>
</g>
</g>
<!-- Node1&#45;&gt;Node6 -->
<g id="edge7" class="edge"><title>Node1&#45;&gt;Node6</title>
<path fill="none" stroke="midnightblue" d="M85.2301,-124C101.255,-124 119.098,-124 133.333,-124"/>
<polygon fill="midnightblue" stroke="midnightblue" points="133.426,-127.5 143.426,-124 133.426,-120.5 133.426,-127.5"/>
</g>
<!-- Node7 -->
<g id="node7" class="node"><title>Node7</title>
<g id="a_node7"><a xlink:href="group__core.html#ga34660db69356d6ab42d986fc2f85d158" target="_top" xlink:title="Subroutine to collect up the MAP boundaries for use in creating NADCON 5. ">
<polygon fill="white" stroke="black" points="121,-76.5 121,-95.5 201,-95.5 201,-76.5 121,-76.5"/>
<text text-anchor="middle" x="161" y="-83.5" font-family="Helvetica,sans-Serif" font-size="10.00">getmapbounds</text>
</a>
</g>
</g>
<!-- Node1&#45;&gt;Node7 -->
<g id="edge8" class="edge"><title>Node1&#45;&gt;Node7</title>
<path fill="none" stroke="midnightblue" d="M72.8979,-114.411C87.385,-109.686 105.058,-103.921 120.689,-98.8226"/>
<polygon fill="midnightblue" stroke="midnightblue" points="122.19,-102.014 130.612,-95.5859 120.019,-95.3595 122.19,-102.014"/>
</g>
<!-- Node8 -->
<g id="node8" class="node"><title>Node8</title>
<g id="a_node8"><a xlink:href="group__core.html#ga1593f511d0df7cf215e5eb55d297e515" target="_top" xlink:title="Subroutine to print grid statistics to stdout. ">
<polygon fill="white" stroke="black" points="134,-38.5 134,-57.5 188,-57.5 188,-38.5 134,-38.5"/>
<text text-anchor="middle" x="161" y="-45.5" font-family="Helvetica,sans-Serif" font-size="10.00">gridstats</text>
</a>
</g>
</g>
<!-- Node1&#45;&gt;Node8 -->
<g id="edge9" class="edge"><title>Node1&#45;&gt;Node8</title>
<path fill="none" stroke="midnightblue" d="M55.1158,-114.417C69.8817,-102.484 96.4155,-81.862 121,-67 123.685,-65.3769 126.529,-63.7789 129.408,-62.2409"/>
<polygon fill="midnightblue" stroke="midnightblue" points="131.254,-65.2289 138.58,-57.5749 128.08,-58.9899 131.254,-65.2289"/>
</g>
<!-- Node9 -->
<g id="node9" class="node"><title>Node9</title>
<g id="a_node9"><a xlink:href="group__core.html#gadc5c9acc8aedbc27aa45d5a78980e6d0" target="_top" xlink:title="Function to round a digit to one significant figure (one non zero digit), double precision. ">
<polygon fill="white" stroke="black" points="139.5,-0.5 139.5,-19.5 182.5,-19.5 182.5,-0.5 139.5,-0.5"/>
<text text-anchor="middle" x="161" y="-7.5" font-family="Helvetica,sans-Serif" font-size="10.00">onzd2</text>
</a>
</g>
</g>
<!-- Node1&#45;&gt;Node9 -->
<g id="edge10" class="edge"><title>Node1&#45;&gt;Node9</title>
<path fill="none" stroke="midnightblue" d="M49.2397,-114.494C60.8149,-95.9759 88.6316,-54.6398 121,-29 123.801,-26.7816 126.902,-24.7329 130.098,-22.8672"/>
<polygon fill="midnightblue" stroke="midnightblue" points="131.947,-25.8493 139.178,-18.105 128.696,-19.6502 131.947,-25.8493"/>
</g>
<!-- Node3 -->
<g id="node3" class="node"><title>Node3</title>
<g id="a_node3"><a xlink:href="group__core.html#ga43be1e80c0bde6748f414d2eee05603f" target="_top" xlink:title="Subroutine to write GMT&#45;based commands to create a shoreline Write GMT&#45;based commands to create a sho...">
<polygon fill="white" stroke="black" points="237,-190.5 237,-209.5 293,-209.5 293,-190.5 237,-190.5"/>
<text text-anchor="middle" x="265" y="-197.5" font-family="Helvetica,sans-Serif" font-size="10.00">plotcoast</text>
</a>
</g>
</g>
<!-- Node2&#45;&gt;Node3 -->
<g id="edge2" class="edge"><title>Node2&#45;&gt;Node3</title>
<path fill="none" stroke="midnightblue" d="M187.739,-228.411C200.181,-223.776 215.307,-218.14 228.797,-213.115"/>
<polygon fill="midnightblue" stroke="midnightblue" points="230.12,-216.357 238.269,-209.586 227.677,-209.797 230.12,-216.357"/>
</g>
<!-- Node4&#45;&gt;Node3 -->
<g id="edge4" class="edge"><title>Node4&#45;&gt;Node3</title>
<path fill="none" stroke="midnightblue" d="M189.066,-200C200.594,-200 214.231,-200 226.69,-200"/>
<polygon fill="midnightblue" stroke="midnightblue" points="226.807,-203.5 236.807,-200 226.807,-196.5 226.807,-203.5"/>
</g>
<!-- Node5&#45;&gt;Node3 -->
<g id="edge6" class="edge"><title>Node5&#45;&gt;Node3</title>
<path fill="none" stroke="midnightblue" d="M182.641,-169.69C195.821,-174.6 213.253,-181.094 228.6,-186.812"/>
<polygon fill="midnightblue" stroke="midnightblue" points="227.726,-190.221 238.319,-190.432 230.17,-183.662 227.726,-190.221"/>
</g>
</g>
</svg>
