<?xml version="1.0" encoding="UTF-8" standalone="no"?>
<!DOCTYPE svg PUBLIC "-//W3C//DTD SVG 1.1//EN"
 "http://www.w3.org/Graphics/SVG/1.1/DTD/svg11.dtd">
<!-- Generated by graphviz version 2.38.0 (20140413.2041)
 -->
<!-- Title: getmapbounds Pages: 1 -->
<svg width="209pt" height="142pt"
 viewBox="0.00 0.00 209.00 142.00" xmlns="http://www.w3.org/2000/svg" xmlns:xlink="http://www.w3.org/1999/xlink">
<g id="graph0" class="graph" transform="scale(1 1) rotate(0) translate(4 138)">
<title>getmapbounds</title>
<polygon fill="white" stroke="none" points="-4,4 -4,-138 205,-138 205,4 -4,4"/>
<!-- Node1 -->
<g id="node1" class="node"><title>Node1</title>
<polygon fill="#bfbfbf" stroke="black" points="0,-57.5 0,-76.5 80,-76.5 80,-57.5 0,-57.5"/>
<text text-anchor="middle" x="40" y="-64.5" font-family="Helvetica,sans-Serif" font-size="10.00">getmapbounds</text>
</g>
<!-- Node2 -->
<g id="node2" class="node"><title>Node2</title>
<g id="a_node2"><a xlink:href="group__doers.html#gac9a2ad84815a01e9242386d75cfb3d08" target="_top" xlink:title="Part of the NADCON5 build process, generates gmtbat04 ">
<polygon fill="white" stroke="black" points="129,-114.5 129,-133.5 188,-133.5 188,-114.5 129,-114.5"/>
<text text-anchor="middle" x="158.5" y="-121.5" font-family="Helvetica,sans-Serif" font-size="10.00">checkgrid</text>
</a>
</g>
</g>
<!-- Node1&#45;&gt;Node2 -->
<g id="edge1" class="edge"><title>Node1&#45;&gt;Node2</title>
<path fill="none" stroke="midnightblue" d="M68.5634,-81.2943C82.6828,-88.5327 100.188,-97.3785 116,-105 122.567,-108.165 129.774,-111.51 136.312,-114.495"/>
<polygon fill="midnightblue" stroke="midnightblue" points="69.8851,-78.0382 59.3918,-76.5747 66.6821,-84.2625 69.8851,-78.0382"/>
</g>
<!-- Node3 -->
<g id="node3" class="node"><title>Node3</title>
<g id="a_node3"><a xlink:href="group__doers.html#gaf6a79a4e301f7aef2eee8c8faf772330" target="_top" xlink:title="Part of the NADCON5 process, generates gmtbat01. ">
<polygon fill="white" stroke="black" points="116,-76.5 116,-95.5 201,-95.5 201,-76.5 116,-76.5"/>
<text text-anchor="middle" x="158.5" y="-83.5" font-family="Helvetica,sans-Serif" font-size="10.00">makeplotfiles01</text>
</a>
</g>
</g>
<!-- Node1&#45;&gt;Node3 -->
<g id="edge2" class="edge"><title>Node1&#45;&gt;Node3</title>
<path fill="none" stroke="midnightblue" d="M90.0408,-74.9981C98.6416,-76.4008 107.517,-77.8483 115.892,-79.2141"/>
<polygon fill="midnightblue" stroke="midnightblue" points="90.5499,-71.5349 80.1169,-73.3796 89.4231,-78.4437 90.5499,-71.5349"/>
</g>
<!-- Node4 -->
<g id="node4" class="node"><title>Node4</title>
<g id="a_node4"><a xlink:href="group__doers.html#gad0e3b2b69516341289fa5d05bec700bd" target="_top" xlink:title="Part of the NADCON5 process, generates gmtbat03 ">
<polygon fill="white" stroke="black" points="116,-38.5 116,-57.5 201,-57.5 201,-38.5 116,-38.5"/>
<text text-anchor="middle" x="158.5" y="-45.5" font-family="Helvetica,sans-Serif" font-size="10.00">makeplotfiles02</text>
</a>
</g>
</g>
<!-- Node1&#45;&gt;Node4 -->
<g id="edge3" class="edge"><title>Node1&#45;&gt;Node4</title>
<path fill="none" stroke="midnightblue" d="M90.0408,-59.0019C98.6416,-57.5992 107.517,-56.1517 115.892,-54.7859"/>
<polygon fill="midnightblue" stroke="midnightblue" points="89.4231,-55.5563 80.1169,-60.6204 90.5499,-62.4651 89.4231,-55.5563"/>
</g>
<!-- Node5 -->
<g id="node5" class="node"><title>Node5</title>
<g id="a_node5"><a xlink:href="group__doers.html#ga5ba1fe4d681ced83528f69e465a2676f" target="_top" xlink:title="Part of the NADCON5 process, generates gmtbat06 ">
<polygon fill="white" stroke="black" points="116,-0.5 116,-19.5 201,-19.5 201,-0.5 116,-0.5"/>
<text text-anchor="middle" x="158.5" y="-7.5" font-family="Helvetica,sans-Serif" font-size="10.00">makeplotfiles03</text>
</a>
</g>
</g>
<!-- Node1&#45;&gt;Node5 -->
<g id="edge4" class="edge"><title>Node1&#45;&gt;Node5</title>
<path fill="none" stroke="midnightblue" d="M68.5634,-52.7057C82.6828,-45.4673 100.188,-36.6215 116,-29 122.567,-25.8346 129.774,-22.4904 136.312,-19.5049"/>
<polygon fill="midnightblue" stroke="midnightblue" points="66.6821,-49.7375 59.3918,-57.4253 69.8851,-55.9618 66.6821,-49.7375"/>
</g>
</g>
</svg>
