<?xml version="1.0" encoding="UTF-8" standalone="no"?>
<!DOCTYPE svg PUBLIC "-//W3C//DTD SVG 1.1//EN"
 "http://www.w3.org/Graphics/SVG/1.1/DTD/svg11.dtd">
<!-- Generated by graphviz version 2.38.0 (20140413.2041)
 -->
<!-- Title: makeplotfiles01 Pages: 1 -->
<svg width="301pt" height="142pt"
 viewBox="0.00 0.00 301.00 142.00" xmlns="http://www.w3.org/2000/svg" xmlns:xlink="http://www.w3.org/1999/xlink">
<g id="graph0" class="graph" transform="scale(1 1) rotate(0) translate(4 138)">
<title>makeplotfiles01</title>
<polygon fill="white" stroke="none" points="-4,4 -4,-138 297,-138 297,4 -4,4"/>
<!-- Node1 -->
<g id="node1" class="node"><title>Node1</title>
<polygon fill="#bfbfbf" stroke="black" points="0,-57.5 0,-76.5 85,-76.5 85,-57.5 0,-57.5"/>
<text text-anchor="middle" x="42.5" y="-64.5" font-family="Helvetica,sans-Serif" font-size="10.00">makeplotfiles01</text>
</g>
<!-- Node2 -->
<g id="node2" class="node"><title>Node2</title>
<g id="a_node2"><a xlink:href="group__core.html#ga6d046a9be31aa1d9b69abd6eb6117294" target="_top" xlink:title="Subroutine to make GMT calls to do a B/W coverage plot. ">
<polygon fill="white" stroke="black" points="133,-114.5 133,-133.5 189,-133.5 189,-114.5 133,-114.5"/>
<text text-anchor="middle" x="161" y="-121.5" font-family="Helvetica,sans-Serif" font-size="10.00">bwplotcv</text>
</a>
</g>
</g>
<!-- Node1&#45;&gt;Node2 -->
<g id="edge1" class="edge"><title>Node1&#45;&gt;Node2</title>
<path fill="none" stroke="midnightblue" d="M62.9218,-76.5399C78.5929,-84.2334 101.209,-95.3272 121,-105 124.21,-106.569 127.569,-108.209 130.913,-109.839"/>
<polygon fill="midnightblue" stroke="midnightblue" points="129.632,-113.109 140.155,-114.344 132.699,-106.816 129.632,-113.109"/>
</g>
<!-- Node4 -->
<g id="node4" class="node"><title>Node4</title>
<g id="a_node4"><a xlink:href="group__core.html#ga82c09d84f1af66481bc8e975f3f986ae" target="_top" xlink:title="Subroutine to make GMT calls to do a B/W vector plot. ">
<polygon fill="white" stroke="black" points="133,-76.5 133,-95.5 189,-95.5 189,-76.5 133,-76.5"/>
<text text-anchor="middle" x="161" y="-83.5" font-family="Helvetica,sans-Serif" font-size="10.00">bwplotvc</text>
</a>
</g>
</g>
<!-- Node1&#45;&gt;Node4 -->
<g id="edge3" class="edge"><title>Node1&#45;&gt;Node4</title>
<path fill="none" stroke="midnightblue" d="M85.2301,-73.8058C97.4506,-75.7988 110.728,-77.9643 122.658,-79.9098"/>
<polygon fill="midnightblue" stroke="midnightblue" points="122.3,-83.3977 132.733,-81.553 123.427,-76.489 122.3,-83.3977"/>
</g>
<!-- Node5 -->
<g id="node5" class="node"><title>Node5</title>
<g id="a_node5"><a xlink:href="group__core.html#ga34660db69356d6ab42d986fc2f85d158" target="_top" xlink:title="Subroutine to collect up the MAP boundaries for use in creating NADCON 5. ">
<polygon fill="white" stroke="black" points="121,-38.5 121,-57.5 201,-57.5 201,-38.5 121,-38.5"/>
<text text-anchor="middle" x="161" y="-45.5" font-family="Helvetica,sans-Serif" font-size="10.00">getmapbounds</text>
</a>
</g>
</g>
<!-- Node1&#45;&gt;Node5 -->
<g id="edge5" class="edge"><title>Node1&#45;&gt;Node5</title>
<path fill="none" stroke="midnightblue" d="M85.2301,-60.1942C93.5831,-58.8319 102.43,-57.3891 111.003,-55.9909"/>
<polygon fill="midnightblue" stroke="midnightblue" points="111.588,-59.4418 120.895,-54.3777 110.461,-52.5331 111.588,-59.4418"/>
</g>
<!-- Node6 -->
<g id="node6" class="node"><title>Node6</title>
<g id="a_node6"><a xlink:href="group__core.html#gadc5c9acc8aedbc27aa45d5a78980e6d0" target="_top" xlink:title="Function to round a digit to one significant figure (one non zero digit), double precision. ">
<polygon fill="white" stroke="black" points="139.5,-0.5 139.5,-19.5 182.5,-19.5 182.5,-0.5 139.5,-0.5"/>
<text text-anchor="middle" x="161" y="-7.5" font-family="Helvetica,sans-Serif" font-size="10.00">onzd2</text>
</a>
</g>
</g>
<!-- Node1&#45;&gt;Node6 -->
<g id="edge6" class="edge"><title>Node1&#45;&gt;Node6</title>
<path fill="none" stroke="midnightblue" d="M62.9218,-57.4601C78.5929,-49.7666 101.209,-38.6728 121,-29 124.21,-27.4311 127.569,-25.7913 130.913,-24.1607"/>
<polygon fill="midnightblue" stroke="midnightblue" points="132.699,-27.1836 140.155,-19.6561 129.632,-20.8912 132.699,-27.1836"/>
</g>
<!-- Node3 -->
<g id="node3" class="node"><title>Node3</title>
<g id="a_node3"><a xlink:href="group__core.html#ga43be1e80c0bde6748f414d2eee05603f" target="_top" xlink:title="Subroutine to write GMT&#45;based commands to create a shoreline Write GMT&#45;based commands to create a sho...">
<polygon fill="white" stroke="black" points="237,-95.5 237,-114.5 293,-114.5 293,-95.5 237,-95.5"/>
<text text-anchor="middle" x="265" y="-102.5" font-family="Helvetica,sans-Serif" font-size="10.00">plotcoast</text>
</a>
</g>
</g>
<!-- Node2&#45;&gt;Node3 -->
<g id="edge2" class="edge"><title>Node2&#45;&gt;Node3</title>
<path fill="none" stroke="midnightblue" d="M189.066,-118.958C200.594,-116.811 214.231,-114.271 226.69,-111.95"/>
<polygon fill="midnightblue" stroke="midnightblue" points="227.617,-115.337 236.807,-110.065 226.335,-108.456 227.617,-115.337"/>
</g>
<!-- Node4&#45;&gt;Node3 -->
<g id="edge4" class="edge"><title>Node4&#45;&gt;Node3</title>
<path fill="none" stroke="midnightblue" d="M189.066,-91.0418C200.594,-93.189 214.231,-95.7292 226.69,-98.0501"/>
<polygon fill="midnightblue" stroke="midnightblue" points="226.335,-101.544 236.807,-99.9347 227.617,-94.6625 226.335,-101.544"/>
</g>
</g>
</svg>
