<?xml version="1.0" encoding="UTF-8" standalone="no"?>
<!DOCTYPE svg PUBLIC "-//W3C//DTD SVG 1.1//EN"
 "http://www.w3.org/Graphics/SVG/1.1/DTD/svg11.dtd">
<!-- Generated by graphviz version 2.38.0 (20140413.2041)
 -->
<!-- Title: plotcoast Pages: 1 -->
<svg width="282pt" height="180pt"
 viewBox="0.00 0.00 282.00 180.00" xmlns="http://www.w3.org/2000/svg" xmlns:xlink="http://www.w3.org/1999/xlink">
<g id="graph0" class="graph" transform="scale(1 1) rotate(0) translate(4 176)">
<title>plotcoast</title>
<polygon fill="white" stroke="none" points="-4,4 -4,-176 278,-176 278,4 -4,4"/>
<!-- Node1 -->
<g id="node1" class="node"><title>Node1</title>
<polygon fill="#bfbfbf" stroke="black" points="0,-95.5 0,-114.5 56,-114.5 56,-95.5 0,-95.5"/>
<text text-anchor="middle" x="28" y="-102.5" font-family="Helvetica,sans-Serif" font-size="10.00">plotcoast</text>
</g>
<!-- Node2 -->
<g id="node2" class="node"><title>Node2</title>
<g id="a_node2"><a xlink:href="group__core.html#ga6d046a9be31aa1d9b69abd6eb6117294" target="_top" xlink:title="Subroutine to make GMT calls to do a B/W coverage plot. ">
<polygon fill="white" stroke="black" points="94.5,-76.5 94.5,-95.5 150.5,-95.5 150.5,-76.5 94.5,-76.5"/>
<text text-anchor="middle" x="122.5" y="-83.5" font-family="Helvetica,sans-Serif" font-size="10.00">bwplotcv</text>
</a>
</g>
</g>
<!-- Node1&#45;&gt;Node2 -->
<g id="edge1" class="edge"><title>Node1&#45;&gt;Node2</title>
<path fill="none" stroke="midnightblue" d="M66.2121,-97.3564C75.6517,-95.4175 85.6139,-93.3712 94.442,-91.5579"/>
<polygon fill="midnightblue" stroke="midnightblue" points="65.344,-93.9616 56.2528,-99.4021 66.7525,-100.818 65.344,-93.9616"/>
</g>
<!-- Node6 -->
<g id="node6" class="node"><title>Node6</title>
<g id="a_node6"><a xlink:href="group__core.html#ga82c09d84f1af66481bc8e975f3f986ae" target="_top" xlink:title="Subroutine to make GMT calls to do a B/W vector plot. ">
<polygon fill="white" stroke="black" points="94.5,-38.5 94.5,-57.5 150.5,-57.5 150.5,-38.5 94.5,-38.5"/>
<text text-anchor="middle" x="122.5" y="-45.5" font-family="Helvetica,sans-Serif" font-size="10.00">bwplotvc</text>
</a>
</g>
</g>
<!-- Node1&#45;&gt;Node6 -->
<g id="edge5" class="edge"><title>Node1&#45;&gt;Node6</title>
<path fill="none" stroke="midnightblue" d="M53.3755,-89.9794C70.06,-79.6982 91.679,-66.3762 106.04,-57.5265"/>
<polygon fill="midnightblue" stroke="midnightblue" points="51.3686,-87.1049 44.6914,-95.3307 55.041,-93.0643 51.3686,-87.1049"/>
</g>
<!-- Node8 -->
<g id="node8" class="node"><title>Node8</title>
<g id="a_node8"><a xlink:href="group__core.html#ga44465308a9701d8ffe256715e4f01215" target="_top" xlink:title="Subroutine to make GMT calls to do Color Raster Rendering of Gridded Data. ">
<polygon fill="white" stroke="black" points="101,-114.5 101,-133.5 144,-133.5 144,-114.5 101,-114.5"/>
<text text-anchor="middle" x="122.5" y="-121.5" font-family="Helvetica,sans-Serif" font-size="10.00">coplot</text>
</a>
</g>
</g>
<!-- Node1&#45;&gt;Node8 -->
<g id="edge10" class="edge"><title>Node1&#45;&gt;Node8</title>
<path fill="none" stroke="midnightblue" d="M66.3295,-112.668C78.1241,-115.09 90.7232,-117.678 100.899,-119.769"/>
<polygon fill="midnightblue" stroke="midnightblue" points="66.7525,-109.182 56.2528,-110.598 65.344,-116.038 66.7525,-109.182"/>
</g>
<!-- Node9 -->
<g id="node9" class="node"><title>Node9</title>
<g id="a_node9"><a xlink:href="group__core.html#gacc3bebf5d61250a63b6d444e4514ad88" target="_top" xlink:title="Subroutine to make GMT calls to do a color raster rendering of gridded data, with coverage overlaid...">
<polygon fill="white" stroke="black" points="92,-152.5 92,-171.5 153,-171.5 153,-152.5 92,-152.5"/>
<text text-anchor="middle" x="122.5" y="-159.5" font-family="Helvetica,sans-Serif" font-size="10.00">coplotwcv</text>
</a>
</g>
</g>
<!-- Node1&#45;&gt;Node9 -->
<g id="edge13" class="edge"><title>Node1&#45;&gt;Node9</title>
<path fill="none" stroke="midnightblue" d="M53.3755,-120.021C70.06,-130.302 91.679,-143.624 106.04,-152.474"/>
<polygon fill="midnightblue" stroke="midnightblue" points="55.041,-116.936 44.6914,-114.669 51.3686,-122.895 55.041,-116.936"/>
</g>
<!-- Node3 -->
<g id="node3" class="node"><title>Node3</title>
<g id="a_node3"><a xlink:href="group__doers.html#gaf6a79a4e301f7aef2eee8c8faf772330" target="_top" xlink:title="Part of the NADCON5 process, generates gmtbat01. ">
<polygon fill="white" stroke="black" points="189,-38.5 189,-57.5 274,-57.5 274,-38.5 189,-38.5"/>
<text text-anchor="middle" x="231.5" y="-45.5" font-family="Helvetica,sans-Serif" font-size="10.00">makeplotfiles01</text>
</a>
</g>
</g>
<!-- Node2&#45;&gt;Node3 -->
<g id="edge2" class="edge"><title>Node2&#45;&gt;Node3</title>
<path fill="none" stroke="midnightblue" d="M160.026,-73.0282C174.281,-67.9656 190.33,-62.2659 203.508,-57.5859"/>
<polygon fill="midnightblue" stroke="midnightblue" points="158.753,-69.7661 150.501,-76.411 161.095,-76.3625 158.753,-69.7661"/>
</g>
<!-- Node4 -->
<g id="node4" class="node"><title>Node4</title>
<g id="a_node4"><a xlink:href="group__doers.html#gad0e3b2b69516341289fa5d05bec700bd" target="_top" xlink:title="Part of the NADCON5 process, generates gmtbat03 ">
<polygon fill="white" stroke="black" points="189,-114.5 189,-133.5 274,-133.5 274,-114.5 189,-114.5"/>
<text text-anchor="middle" x="231.5" y="-121.5" font-family="Helvetica,sans-Serif" font-size="10.00">makeplotfiles02</text>
</a>
</g>
</g>
<!-- Node2&#45;&gt;Node4 -->
<g id="edge3" class="edge"><title>Node2&#45;&gt;Node4</title>
<path fill="none" stroke="midnightblue" d="M160.026,-98.9718C174.281,-104.034 190.33,-109.734 203.508,-114.414"/>
<polygon fill="midnightblue" stroke="midnightblue" points="161.095,-95.6375 150.501,-95.589 158.753,-102.234 161.095,-95.6375"/>
</g>
<!-- Node5 -->
<g id="node5" class="node"><title>Node5</title>
<g id="a_node5"><a xlink:href="group__doers.html#ga5ba1fe4d681ced83528f69e465a2676f" target="_top" xlink:title="Part of the NADCON5 process, generates gmtbat06 ">
<polygon fill="white" stroke="black" points="189,-76.5 189,-95.5 274,-95.5 274,-76.5 189,-76.5"/>
<text text-anchor="middle" x="231.5" y="-83.5" font-family="Helvetica,sans-Serif" font-size="10.00">makeplotfiles03</text>
</a>
</g>
</g>
<!-- Node2&#45;&gt;Node5 -->
<g id="edge4" class="edge"><title>Node2&#45;&gt;Node5</title>
<path fill="none" stroke="midnightblue" d="M160.781,-86C169.869,-86 179.646,-86 188.92,-86"/>
<polygon fill="midnightblue" stroke="midnightblue" points="160.501,-82.5001 150.501,-86 160.501,-89.5001 160.501,-82.5001"/>
</g>
<!-- Node6&#45;&gt;Node3 -->
<g id="edge7" class="edge"><title>Node6&#45;&gt;Node3</title>
<path fill="none" stroke="midnightblue" d="M160.781,-48C169.869,-48 179.646,-48 188.92,-48"/>
<polygon fill="midnightblue" stroke="midnightblue" points="160.501,-44.5001 150.501,-48 160.501,-51.5001 160.501,-44.5001"/>
</g>
<!-- Node6&#45;&gt;Node4 -->
<g id="edge8" class="edge"><title>Node6&#45;&gt;Node4</title>
<path fill="none" stroke="midnightblue" d="M148.248,-63.2974C149.888,-64.5063 151.488,-65.746 153,-67 170.908,-81.85 170.078,-91.4658 189,-105 194.027,-108.596 199.844,-111.764 205.502,-114.432"/>
<polygon fill="midnightblue" stroke="midnightblue" points="150.141,-60.3519 139.914,-57.5839 146.183,-66.1253 150.141,-60.3519"/>
</g>
<!-- Node6&#45;&gt;Node5 -->
<g id="edge9" class="edge"><title>Node6&#45;&gt;Node5</title>
<path fill="none" stroke="midnightblue" d="M160.026,-60.9718C174.281,-66.0344 190.33,-71.7341 203.508,-76.4141"/>
<polygon fill="midnightblue" stroke="midnightblue" points="161.095,-57.6375 150.501,-57.589 158.753,-64.2339 161.095,-57.6375"/>
</g>
<!-- Node7 -->
<g id="node7" class="node"><title>Node7</title>
<g id="a_node7"><a xlink:href="group__doers.html#gac9a2ad84815a01e9242386d75cfb3d08" target="_top" xlink:title="Part of the NADCON5 build process, generates gmtbat04 ">
<polygon fill="white" stroke="black" points="202,-0.5 202,-19.5 261,-19.5 261,-0.5 202,-0.5"/>
<text text-anchor="middle" x="231.5" y="-7.5" font-family="Helvetica,sans-Serif" font-size="10.00">checkgrid</text>
</a>
</g>
</g>
<!-- Node6&#45;&gt;Node7 -->
<g id="edge6" class="edge"><title>Node6&#45;&gt;Node7</title>
<path fill="none" stroke="midnightblue" d="M160.026,-35.0282C174.281,-29.9656 190.33,-24.2659 203.508,-19.5859"/>
<polygon fill="midnightblue" stroke="midnightblue" points="158.753,-31.7661 150.501,-38.411 161.095,-38.3625 158.753,-31.7661"/>
</g>
<!-- Node8&#45;&gt;Node4 -->
<g id="edge11" class="edge"><title>Node8&#45;&gt;Node4</title>
<path fill="none" stroke="midnightblue" d="M154.269,-124C164.99,-124 177.207,-124 188.671,-124"/>
<polygon fill="midnightblue" stroke="midnightblue" points="154.131,-120.5 144.131,-124 154.131,-127.5 154.131,-120.5"/>
</g>
<!-- Node8&#45;&gt;Node5 -->
<g id="edge12" class="edge"><title>Node8&#45;&gt;Node5</title>
<path fill="none" stroke="midnightblue" d="M153.848,-113.222C169.462,-107.677 188.336,-100.974 203.448,-95.6074"/>
<polygon fill="midnightblue" stroke="midnightblue" points="152.383,-110.028 144.131,-116.673 154.725,-116.625 152.383,-110.028"/>
</g>
<!-- Node9&#45;&gt;Node4 -->
<g id="edge14" class="edge"><title>Node9&#45;&gt;Node4</title>
<path fill="none" stroke="midnightblue" d="M160.026,-149.028C174.281,-143.966 190.33,-138.266 203.508,-133.586"/>
<polygon fill="midnightblue" stroke="midnightblue" points="158.753,-145.766 150.501,-152.411 161.095,-152.362 158.753,-145.766"/>
</g>
</g>
</svg>
