<?xml version="1.0" encoding="UTF-8" standalone="no"?>
<!DOCTYPE svg PUBLIC "-//W3C//DTD SVG 1.1//EN"
 "http://www.w3.org/Graphics/SVG/1.1/DTD/svg11.dtd">
<!-- Generated by graphviz version 2.38.0 (20140413.2041)
 -->
<!-- Title: mymedian5 Pages: 1 -->
<svg width="274pt" height="104pt"
 viewBox="0.00 0.00 274.00 104.00" xmlns="http://www.w3.org/2000/svg" xmlns:xlink="http://www.w3.org/1999/xlink">
<g id="graph0" class="graph" transform="scale(1 1) rotate(0) translate(4 100)">
<title>mymedian5</title>
<polygon fill="white" stroke="none" points="-4,4 -4,-100 270,-100 270,4 -4,4"/>
<!-- Node1 -->
<g id="node1" class="node"><title>Node1</title>
<polygon fill="#bfbfbf" stroke="black" points="0,-38.5 0,-57.5 67,-57.5 67,-38.5 0,-38.5"/>
<text text-anchor="middle" x="33.5" y="-45.5" font-family="Helvetica,sans-Serif" font-size="10.00">mymedian5</text>
</g>
<!-- Node2 -->
<g id="node2" class="node"><title>Node2</title>
<g id="a_node2"><a xlink:href="group__core.html#ga456c2747eddc4e9792e9c052fc3dfb2a" target="_top" xlink:title="Subroutine to collect up the GRID boundaries for use in creating NADCON 5. ">
<polygon fill="white" stroke="black" points="103,-76.5 103,-95.5 180,-95.5 180,-76.5 103,-76.5"/>
<text text-anchor="middle" x="141.5" y="-83.5" font-family="Helvetica,sans-Serif" font-size="10.00">getgridbounds</text>
</a>
</g>
</g>
<!-- Node1&#45;&gt;Node2 -->
<g id="edge1" class="edge"><title>Node1&#45;&gt;Node2</title>
<path fill="none" stroke="midnightblue" d="M61.2483,-57.589C74.3042,-62.2694 90.2035,-67.9692 104.325,-73.0315"/>
<polygon fill="midnightblue" stroke="midnightblue" points="103.166,-76.3341 113.76,-76.4141 105.528,-69.7447 103.166,-76.3341"/>
</g>
<!-- Node3 -->
<g id="node3" class="node"><title>Node3</title>
<g id="a_node3"><a xlink:href="mymedian5_8f.html#a1ec08b743c792932cedde2d4e702882c" target="_top" xlink:title="getmedian">
<polygon fill="white" stroke="black" points="110.5,-38.5 110.5,-57.5 172.5,-57.5 172.5,-38.5 110.5,-38.5"/>
<text text-anchor="middle" x="141.5" y="-45.5" font-family="Helvetica,sans-Serif" font-size="10.00">getmedian</text>
</a>
</g>
</g>
<!-- Node1&#45;&gt;Node3 -->
<g id="edge2" class="edge"><title>Node1&#45;&gt;Node3</title>
<path fill="none" stroke="midnightblue" d="M67.1684,-48C77.5866,-48 89.2402,-48 100.137,-48"/>
<polygon fill="midnightblue" stroke="midnightblue" points="100.288,-51.5001 110.288,-48 100.288,-44.5001 100.288,-51.5001"/>
</g>
<!-- Node5 -->
<g id="node5" class="node"><title>Node5</title>
<g id="a_node5"><a xlink:href="group__core.html#gaada1f7f6294a20b1828bd4d1b7e37ca0" target="_top" xlink:title="Subroutine to perform ?? indexing on integer data. ">
<polygon fill="white" stroke="black" points="118,-0.5 118,-19.5 165,-19.5 165,-0.5 118,-0.5"/>
<text text-anchor="middle" x="141.5" y="-7.5" font-family="Helvetica,sans-Serif" font-size="10.00">indexxi</text>
</a>
</g>
</g>
<!-- Node1&#45;&gt;Node5 -->
<g id="edge4" class="edge"><title>Node1&#45;&gt;Node5</title>
<path fill="none" stroke="midnightblue" d="M61.2483,-38.411C75.5366,-33.2888 93.2303,-26.9457 108.272,-21.5534"/>
<polygon fill="midnightblue" stroke="midnightblue" points="109.479,-24.8388 117.712,-18.1695 107.117,-18.2494 109.479,-24.8388"/>
</g>
<!-- Node4 -->
<g id="node4" class="node"><title>Node4</title>
<g id="a_node4"><a xlink:href="group__core.html#gaec1b049dc4be13c46b684423fc31805e" target="_top" xlink:title="Subroutine to perform ?? indexing on floating point data (double precision) ">
<polygon fill="white" stroke="black" points="216,-38.5 216,-57.5 266,-57.5 266,-38.5 216,-38.5"/>
<text text-anchor="middle" x="241" y="-45.5" font-family="Helvetica,sans-Serif" font-size="10.00">indexxd</text>
</a>
</g>
</g>
<!-- Node3&#45;&gt;Node4 -->
<g id="edge3" class="edge"><title>Node3&#45;&gt;Node4</title>
<path fill="none" stroke="midnightblue" d="M172.549,-48C182.956,-48 194.703,-48 205.444,-48"/>
<polygon fill="midnightblue" stroke="midnightblue" points="205.762,-51.5001 215.762,-48 205.762,-44.5001 205.762,-51.5001"/>
</g>
</g>
</svg>
