<?xml version="1.0" encoding="UTF-8" standalone="no"?>
<!DOCTYPE svg PUBLIC "-//W3C//DTD SVG 1.1//EN"
 "http://www.w3.org/Graphics/SVG/1.1/DTD/svg11.dtd">
<!-- Generated by graphviz version 2.38.0 (20140413.2041)
 -->
<!-- Title: myrms Pages: 1 -->
<svg width="168pt" height="142pt"
 viewBox="0.00 0.00 168.00 142.00" xmlns="http://www.w3.org/2000/svg" xmlns:xlink="http://www.w3.org/1999/xlink">
<g id="graph0" class="graph" transform="scale(1 1) rotate(0) translate(4 138)">
<title>myrms</title>
<polygon fill="white" stroke="none" points="-4,4 -4,-138 164,-138 164,4 -4,4"/>
<!-- Node1 -->
<g id="node1" class="node"><title>Node1</title>
<polygon fill="#bfbfbf" stroke="black" points="0,-57.5 0,-76.5 47,-76.5 47,-57.5 0,-57.5"/>
<text text-anchor="middle" x="23.5" y="-64.5" font-family="Helvetica,sans-Serif" font-size="10.00">myrms</text>
</g>
<!-- Node2 -->
<g id="node2" class="node"><title>Node2</title>
<g id="a_node2"><a xlink:href="group__core.html#ga456c2747eddc4e9792e9c052fc3dfb2a" target="_top" xlink:title="Subroutine to collect up the GRID boundaries for use in creating NADCON 5. ">
<polygon fill="white" stroke="black" points="83,-114.5 83,-133.5 160,-133.5 160,-114.5 83,-114.5"/>
<text text-anchor="middle" x="121.5" y="-121.5" font-family="Helvetica,sans-Serif" font-size="10.00">getgridbounds</text>
</a>
</g>
</g>
<!-- Node1&#45;&gt;Node2 -->
<g id="edge1" class="edge"><title>Node1&#45;&gt;Node2</title>
<path fill="none" stroke="midnightblue" d="M38.657,-76.8069C50.3422,-84.7517 67.4677,-96.0547 83,-105 85.6958,-106.553 88.5336,-108.115 91.3912,-109.641"/>
<polygon fill="midnightblue" stroke="midnightblue" points="89.9492,-112.835 100.438,-114.333 93.1724,-106.622 89.9492,-112.835"/>
</g>
<!-- Node3 -->
<g id="node3" class="node"><title>Node3</title>
<g id="a_node3"><a xlink:href="myrms_8f.html#a2340f145ed413d747cdf2b160fd72e51" target="_top" xlink:title="getrms">
<polygon fill="white" stroke="black" points="98,-76.5 98,-95.5 145,-95.5 145,-76.5 98,-76.5"/>
<text text-anchor="middle" x="121.5" y="-83.5" font-family="Helvetica,sans-Serif" font-size="10.00">getrms</text>
</a>
</g>
</g>
<!-- Node1&#45;&gt;Node3 -->
<g id="edge2" class="edge"><title>Node1&#45;&gt;Node3</title>
<path fill="none" stroke="midnightblue" d="M47.2507,-71.5027C59.4454,-73.9163 74.6797,-76.9314 88.0919,-79.5859"/>
<polygon fill="midnightblue" stroke="midnightblue" points="87.4234,-83.0214 97.9126,-81.5296 88.7825,-76.1546 87.4234,-83.0214"/>
</g>
<!-- Node4 -->
<g id="node4" class="node"><title>Node4</title>
<g id="a_node4"><a xlink:href="group__core.html#gaada1f7f6294a20b1828bd4d1b7e37ca0" target="_top" xlink:title="Subroutine to perform ?? indexing on integer data. ">
<polygon fill="white" stroke="black" points="98,-38.5 98,-57.5 145,-57.5 145,-38.5 98,-38.5"/>
<text text-anchor="middle" x="121.5" y="-45.5" font-family="Helvetica,sans-Serif" font-size="10.00">indexxi</text>
</a>
</g>
</g>
<!-- Node1&#45;&gt;Node4 -->
<g id="edge3" class="edge"><title>Node1&#45;&gt;Node4</title>
<path fill="none" stroke="midnightblue" d="M47.2507,-62.4973C59.4454,-60.0837 74.6797,-57.0686 88.0919,-54.4141"/>
<polygon fill="midnightblue" stroke="midnightblue" points="88.7825,-57.8454 97.9126,-52.4704 87.4234,-50.9786 88.7825,-57.8454"/>
</g>
<!-- Node5 -->
<g id="node5" class="node"><title>Node5</title>
<g id="a_node5"><a xlink:href="group__core.html#gadc5c9acc8aedbc27aa45d5a78980e6d0" target="_top" xlink:title="Function to round a digit to one significant figure (one non zero digit), double precision. ">
<polygon fill="white" stroke="black" points="100,-0.5 100,-19.5 143,-19.5 143,-0.5 100,-0.5"/>
<text text-anchor="middle" x="121.5" y="-7.5" font-family="Helvetica,sans-Serif" font-size="10.00">onzd2</text>
</a>
</g>
</g>
<!-- Node1&#45;&gt;Node5 -->
<g id="edge4" class="edge"><title>Node1&#45;&gt;Node5</title>
<path fill="none" stroke="midnightblue" d="M38.657,-57.1931C50.3422,-49.2483 67.4677,-37.9453 83,-29 85.6958,-27.4474 88.5336,-25.8851 91.3912,-24.3594"/>
<polygon fill="midnightblue" stroke="midnightblue" points="93.1724,-27.3784 100.438,-19.667 89.9492,-21.1645 93.1724,-27.3784"/>
</g>
</g>
</svg>
