<?xml version="1.0" encoding="UTF-8" standalone="no"?>
<!DOCTYPE svg PUBLIC "-//W3C//DTD SVG 1.1//EN"
 "http://www.w3.org/Graphics/SVG/1.1/DTD/svg11.dtd">
<!-- Generated by graphviz version 2.38.0 (20140413.2041)
 -->
<!-- Title: onzd2 Pages: 1 -->
<svg width="172pt" height="180pt"
 viewBox="0.00 0.00 172.00 180.00" xmlns="http://www.w3.org/2000/svg" xmlns:xlink="http://www.w3.org/1999/xlink">
<g id="graph0" class="graph" transform="scale(1 1) rotate(0) translate(4 176)">
<title>onzd2</title>
<polygon fill="white" stroke="none" points="-4,4 -4,-176 168,-176 168,4 -4,4"/>
<!-- Node1 -->
<g id="node1" class="node"><title>Node1</title>
<polygon fill="#bfbfbf" stroke="black" points="0,-76.5 0,-95.5 43,-95.5 43,-76.5 0,-76.5"/>
<text text-anchor="middle" x="21.5" y="-83.5" font-family="Helvetica,sans-Serif" font-size="10.00">onzd2</text>
</g>
<!-- Node2 -->
<g id="node2" class="node"><title>Node2</title>
<g id="a_node2"><a xlink:href="group__doers.html#gac9a2ad84815a01e9242386d75cfb3d08" target="_top" xlink:title="Part of the NADCON5 build process, generates gmtbat04 ">
<polygon fill="white" stroke="black" points="92,-152.5 92,-171.5 151,-171.5 151,-152.5 92,-152.5"/>
<text text-anchor="middle" x="121.5" y="-159.5" font-family="Helvetica,sans-Serif" font-size="10.00">checkgrid</text>
</a>
</g>
</g>
<!-- Node1&#45;&gt;Node2 -->
<g id="edge1" class="edge"><title>Node1&#45;&gt;Node2</title>
<path fill="none" stroke="midnightblue" d="M36.6244,-103.266C47.3058,-115.517 62.8493,-131.722 79,-143 84.0676,-146.539 89.8997,-149.685 95.5601,-152.349"/>
<polygon fill="midnightblue" stroke="midnightblue" points="39.1965,-100.888 30.0587,-95.5257 33.8583,-105.416 39.1965,-100.888"/>
</g>
<!-- Node3 -->
<g id="node3" class="node"><title>Node3</title>
<g id="a_node3"><a xlink:href="group__doers.html#gaf6a79a4e301f7aef2eee8c8faf772330" target="_top" xlink:title="Part of the NADCON5 process, generates gmtbat01. ">
<polygon fill="white" stroke="black" points="79,-114.5 79,-133.5 164,-133.5 164,-114.5 79,-114.5"/>
<text text-anchor="middle" x="121.5" y="-121.5" font-family="Helvetica,sans-Serif" font-size="10.00">makeplotfiles01</text>
</a>
</g>
</g>
<!-- Node1&#45;&gt;Node3 -->
<g id="edge2" class="edge"><title>Node1&#45;&gt;Node3</title>
<path fill="none" stroke="midnightblue" d="M52.871,-97.7765C66.7104,-103.143 82.8792,-109.412 95.9364,-114.475"/>
<polygon fill="midnightblue" stroke="midnightblue" points="53.8723,-94.4109 43.2833,-94.0588 51.3415,-100.937 53.8723,-94.4109"/>
</g>
<!-- Node4 -->
<g id="node4" class="node"><title>Node4</title>
<g id="a_node4"><a xlink:href="group__doers.html#gad0e3b2b69516341289fa5d05bec700bd" target="_top" xlink:title="Part of the NADCON5 process, generates gmtbat03 ">
<polygon fill="white" stroke="black" points="79,-76.5 79,-95.5 164,-95.5 164,-76.5 79,-76.5"/>
<text text-anchor="middle" x="121.5" y="-83.5" font-family="Helvetica,sans-Serif" font-size="10.00">makeplotfiles02</text>
</a>
</g>
</g>
<!-- Node1&#45;&gt;Node4 -->
<g id="edge3" class="edge"><title>Node1&#45;&gt;Node4</title>
<path fill="none" stroke="midnightblue" d="M53.3515,-86C61.4127,-86 70.237,-86 78.7615,-86"/>
<polygon fill="midnightblue" stroke="midnightblue" points="53.2833,-82.5001 43.2833,-86 53.2832,-89.5001 53.2833,-82.5001"/>
</g>
<!-- Node5 -->
<g id="node5" class="node"><title>Node5</title>
<g id="a_node5"><a xlink:href="group__doers.html#ga5ba1fe4d681ced83528f69e465a2676f" target="_top" xlink:title="Part of the NADCON5 process, generates gmtbat06 ">
<polygon fill="white" stroke="black" points="79,-38.5 79,-57.5 164,-57.5 164,-38.5 79,-38.5"/>
<text text-anchor="middle" x="121.5" y="-45.5" font-family="Helvetica,sans-Serif" font-size="10.00">makeplotfiles03</text>
</a>
</g>
</g>
<!-- Node1&#45;&gt;Node5 -->
<g id="edge4" class="edge"><title>Node1&#45;&gt;Node5</title>
<path fill="none" stroke="midnightblue" d="M52.871,-74.2235C66.7104,-68.8572 82.8792,-62.5877 95.9364,-57.5246"/>
<polygon fill="midnightblue" stroke="midnightblue" points="51.3415,-71.0626 43.2833,-77.9412 53.8723,-77.5891 51.3415,-71.0626"/>
</g>
<!-- Node6 -->
<g id="node6" class="node"><title>Node6</title>
<g id="a_node6"><a xlink:href="group__doers.html#ga5baa6ad756ca0a7d136baa7644c5696b" target="_top" xlink:title="Part of the NADCON5 build process, generates gmtbat05 ">
<polygon fill="white" stroke="black" points="98,-0.5 98,-19.5 145,-19.5 145,-0.5 98,-0.5"/>
<text text-anchor="middle" x="121.5" y="-7.5" font-family="Helvetica,sans-Serif" font-size="10.00">myrms</text>
</a>
</g>
</g>
<!-- Node1&#45;&gt;Node6 -->
<g id="edge5" class="edge"><title>Node1&#45;&gt;Node6</title>
<path fill="none" stroke="midnightblue" d="M36.6244,-68.7338C47.3058,-56.483 62.8493,-40.2778 79,-29 84.7172,-25.0077 91.4077,-21.515 97.7267,-18.6502"/>
<polygon fill="midnightblue" stroke="midnightblue" points="33.8583,-66.5842 30.0587,-76.4743 39.1965,-71.1123 33.8583,-66.5842"/>
</g>
</g>
</svg>
