<?xml version="1.0" encoding="UTF-8" standalone="no"?>
<!DOCTYPE svg PUBLIC "-//W3C//DTD SVG 1.1//EN"
 "http://www.w3.org/Graphics/SVG/1.1/DTD/svg11.dtd">
<!-- Generated by graphviz version 2.38.0 (20140413.2041)
 -->
<!-- Title: regrd2 Pages: 1 -->
<svg width="136pt" height="142pt"
 viewBox="0.00 0.00 136.00 142.00" xmlns="http://www.w3.org/2000/svg" xmlns:xlink="http://www.w3.org/1999/xlink">
<g id="graph0" class="graph" transform="scale(1 1) rotate(0) translate(4 138)">
<title>regrd2</title>
<polygon fill="white" stroke="none" points="-4,4 -4,-138 132,-138 132,4 -4,4"/>
<!-- Node1 -->
<g id="node1" class="node"><title>Node1</title>
<polygon fill="#bfbfbf" stroke="black" points="0,-57.5 0,-76.5 44,-76.5 44,-57.5 0,-57.5"/>
<text text-anchor="middle" x="22" y="-64.5" font-family="Helvetica,sans-Serif" font-size="10.00">regrd2</text>
</g>
<!-- Node2 -->
<g id="node2" class="node"><title>Node2</title>
<g id="a_node2"><a xlink:href="regrd2_8f.html#abe0e12c9a4af1c7115195dd5bfe6d583" target="_top" xlink:title="bquad1">
<polygon fill="white" stroke="black" points="80,-114.5 80,-133.5 128,-133.5 128,-114.5 80,-114.5"/>
<text text-anchor="middle" x="104" y="-121.5" font-family="Helvetica,sans-Serif" font-size="10.00">bquad1</text>
</a>
</g>
</g>
<!-- Node1&#45;&gt;Node2 -->
<g id="edge1" class="edge"><title>Node1&#45;&gt;Node2</title>
<path fill="none" stroke="midnightblue" d="M36.5709,-76.6693C48.8273,-85.4019 67.0758,-98.404 81.3469,-108.572"/>
<polygon fill="midnightblue" stroke="midnightblue" points="79.4543,-111.521 89.6295,-114.474 83.5163,-105.82 79.4543,-111.521"/>
</g>
<!-- Node3 -->
<g id="node3" class="node"><title>Node3</title>
<g id="a_node3"><a xlink:href="regrd2_8f.html#a609b6a9372d9ddfc38dc0141f7b16792" target="_top" xlink:title="bquad2">
<polygon fill="white" stroke="black" points="80,-76.5 80,-95.5 128,-95.5 128,-76.5 80,-76.5"/>
<text text-anchor="middle" x="104" y="-83.5" font-family="Helvetica,sans-Serif" font-size="10.00">bquad2</text>
</a>
</g>
</g>
<!-- Node1&#45;&gt;Node3 -->
<g id="edge2" class="edge"><title>Node1&#45;&gt;Node3</title>
<path fill="none" stroke="midnightblue" d="M44.0191,-71.992C51.9383,-73.8728 61.1496,-76.0605 69.9057,-78.1401"/>
<polygon fill="midnightblue" stroke="midnightblue" points="69.3326,-81.6013 79.8708,-80.5068 70.9502,-74.7907 69.3326,-81.6013"/>
</g>
<!-- Node4 -->
<g id="node4" class="node"><title>Node4</title>
<g id="a_node4"><a xlink:href="regrd2_8f.html#aa7b70f50e1afe48e1f5b93f59cb01b71" target="_top" xlink:title="r1">
<polygon fill="white" stroke="black" points="89.5,-38.5 89.5,-57.5 118.5,-57.5 118.5,-38.5 89.5,-38.5"/>
<text text-anchor="middle" x="104" y="-45.5" font-family="Helvetica,sans-Serif" font-size="10.00">r1</text>
</a>
</g>
</g>
<!-- Node1&#45;&gt;Node4 -->
<g id="edge3" class="edge"><title>Node1&#45;&gt;Node4</title>
<path fill="none" stroke="midnightblue" d="M44.0191,-62.008C54.8244,-59.4417 68.0354,-56.3041 79.2132,-53.6494"/>
<polygon fill="midnightblue" stroke="midnightblue" points="80.2415,-57.0026 89.1621,-51.2865 78.6239,-50.192 80.2415,-57.0026"/>
</g>
<!-- Node5 -->
<g id="node5" class="node"><title>Node5</title>
<g id="a_node5"><a xlink:href="regrd2_8f.html#a0aed1e0d65f40c637d7492073c0c0223" target="_top" xlink:title="r2">
<polygon fill="white" stroke="black" points="89.5,-0.5 89.5,-19.5 118.5,-19.5 118.5,-0.5 89.5,-0.5"/>
<text text-anchor="middle" x="104" y="-7.5" font-family="Helvetica,sans-Serif" font-size="10.00">r2</text>
</a>
</g>
</g>
<!-- Node1&#45;&gt;Node5 -->
<g id="edge4" class="edge"><title>Node1&#45;&gt;Node5</title>
<path fill="none" stroke="midnightblue" d="M36.5709,-57.3307C48.8273,-48.5981 67.0758,-35.596 81.3469,-25.4278"/>
<polygon fill="midnightblue" stroke="midnightblue" points="83.5163,-28.1797 89.6295,-19.5265 79.4543,-22.4788 83.5163,-28.1797"/>
</g>
</g>
</svg>
