<?xml version="1.0" encoding="UTF-8" standalone="no"?>
<!DOCTYPE svg PUBLIC "-//W3C//DTD SVG 1.1//EN"
 "http://www.w3.org/Graphics/SVG/1.1/DTD/svg11.dtd">
<!-- Generated by graphviz version 2.38.0 (20140413.2041)
 -->
<!-- Title: bwplotvc Pages: 1 -->
<svg width="185pt" height="142pt"
 viewBox="0.00 0.00 185.00 142.00" xmlns="http://www.w3.org/2000/svg" xmlns:xlink="http://www.w3.org/1999/xlink">
<g id="graph0" class="graph" transform="scale(1 1) rotate(0) translate(4 138)">
<title>bwplotvc</title>
<polygon fill="white" stroke="none" points="-4,4 -4,-138 181,-138 181,4 -4,4"/>
<!-- Node1 -->
<g id="node1" class="node"><title>Node1</title>
<polygon fill="#bfbfbf" stroke="black" points="0,-57.5 0,-76.5 56,-76.5 56,-57.5 0,-57.5"/>
<text text-anchor="middle" x="28" y="-64.5" font-family="Helvetica,sans-Serif" font-size="10.00">bwplotvc</text>
</g>
<!-- Node2 -->
<g id="node2" class="node"><title>Node2</title>
<g id="a_node2"><a xlink:href="group__doers.html#gac9a2ad84815a01e9242386d75cfb3d08" target="_top" xlink:title="Part of the NADCON5 build process, generates gmtbat04 ">
<polygon fill="white" stroke="black" points="105,-114.5 105,-133.5 164,-133.5 164,-114.5 105,-114.5"/>
<text text-anchor="middle" x="134.5" y="-121.5" font-family="Helvetica,sans-Serif" font-size="10.00">checkgrid</text>
</a>
</g>
</g>
<!-- Node1&#45;&gt;Node2 -->
<g id="edge1" class="edge"><title>Node1&#45;&gt;Node2</title>
<path fill="none" stroke="midnightblue" d="M52.4595,-82.0179C64.1591,-89.283 78.6327,-97.9378 92,-105 98.1656,-108.257 104.996,-111.52 111.306,-114.4"/>
<polygon fill="midnightblue" stroke="midnightblue" points="54.0757,-78.8999 43.7455,-76.5463 50.3533,-84.8282 54.0757,-78.8999"/>
</g>
<!-- Node3 -->
<g id="node3" class="node"><title>Node3</title>
<g id="a_node3"><a xlink:href="group__doers.html#gaf6a79a4e301f7aef2eee8c8faf772330" target="_top" xlink:title="Part of the NADCON5 process, generates gmtbat01. ">
<polygon fill="white" stroke="black" points="92,-76.5 92,-95.5 177,-95.5 177,-76.5 92,-76.5"/>
<text text-anchor="middle" x="134.5" y="-83.5" font-family="Helvetica,sans-Serif" font-size="10.00">makeplotfiles01</text>
</a>
</g>
</g>
<!-- Node1&#45;&gt;Node3 -->
<g id="edge2" class="edge"><title>Node1&#45;&gt;Node3</title>
<path fill="none" stroke="midnightblue" d="M66.0351,-73.7336C74.3964,-75.2539 83.3271,-76.8777 91.8634,-78.4297"/>
<polygon fill="midnightblue" stroke="midnightblue" points="66.6482,-70.2878 56.1833,-71.9424 65.3959,-77.1749 66.6482,-70.2878"/>
</g>
<!-- Node4 -->
<g id="node4" class="node"><title>Node4</title>
<g id="a_node4"><a xlink:href="group__doers.html#gad0e3b2b69516341289fa5d05bec700bd" target="_top" xlink:title="Part of the NADCON5 process, generates gmtbat03 ">
<polygon fill="white" stroke="black" points="92,-38.5 92,-57.5 177,-57.5 177,-38.5 92,-38.5"/>
<text text-anchor="middle" x="134.5" y="-45.5" font-family="Helvetica,sans-Serif" font-size="10.00">makeplotfiles02</text>
</a>
</g>
</g>
<!-- Node1&#45;&gt;Node4 -->
<g id="edge3" class="edge"><title>Node1&#45;&gt;Node4</title>
<path fill="none" stroke="midnightblue" d="M66.0351,-60.2664C74.3964,-58.7461 83.3271,-57.1223 91.8634,-55.5703"/>
<polygon fill="midnightblue" stroke="midnightblue" points="65.3959,-56.8251 56.1833,-62.0576 66.6482,-63.7122 65.3959,-56.8251"/>
</g>
<!-- Node5 -->
<g id="node5" class="node"><title>Node5</title>
<g id="a_node5"><a xlink:href="group__doers.html#ga5ba1fe4d681ced83528f69e465a2676f" target="_top" xlink:title="Part of the NADCON5 process, generates gmtbat06 ">
<polygon fill="white" stroke="black" points="92,-0.5 92,-19.5 177,-19.5 177,-0.5 92,-0.5"/>
<text text-anchor="middle" x="134.5" y="-7.5" font-family="Helvetica,sans-Serif" font-size="10.00">makeplotfiles03</text>
</a>
</g>
</g>
<!-- Node1&#45;&gt;Node5 -->
<g id="edge4" class="edge"><title>Node1&#45;&gt;Node5</title>
<path fill="none" stroke="midnightblue" d="M52.4595,-51.9821C64.1591,-44.717 78.6327,-36.0622 92,-29 98.1656,-25.7426 104.996,-22.4795 111.306,-19.5996"/>
<polygon fill="midnightblue" stroke="midnightblue" points="50.3533,-49.1718 43.7455,-57.4537 54.0757,-55.1001 50.3533,-49.1718"/>
</g>
</g>
</svg>
