<?xml version="1.0" encoding="UTF-8" standalone="no"?>
<!DOCTYPE svg PUBLIC "-//W3C//DTD SVG 1.1//EN"
 "http://www.w3.org/Graphics/SVG/1.1/DTD/svg11.dtd">
<!-- Generated by graphviz version 2.38.0 (20140413.2041)
 -->
<!-- Title: xyz2b Pages: 1 -->
<svg width="122pt" height="142pt"
 viewBox="0.00 0.00 122.00 142.00" xmlns="http://www.w3.org/2000/svg" xmlns:xlink="http://www.w3.org/1999/xlink">
<g id="graph0" class="graph" transform="scale(1 1) rotate(0) translate(4 138)">
<title>xyz2b</title>
<polygon fill="white" stroke="none" points="-4,4 -4,-138 118,-138 118,4 -4,4"/>
<!-- Node1 -->
<g id="node1" class="node"><title>Node1</title>
<polygon fill="#bfbfbf" stroke="black" points="0,-57.5 0,-76.5 43,-76.5 43,-57.5 0,-57.5"/>
<text text-anchor="middle" x="21.5" y="-64.5" font-family="Helvetica,sans-Serif" font-size="10.00">xyz2b</text>
</g>
<!-- Node2 -->
<g id="node2" class="node"><title>Node2</title>
<g id="a_node2"><a xlink:href="xyz2b_8f.html#a62367a150d04f243db756369bbc38416" target="_top" xlink:title="put1">
<polygon fill="white" stroke="black" points="79,-114.5 79,-133.5 114,-133.5 114,-114.5 79,-114.5"/>
<text text-anchor="middle" x="96.5" y="-121.5" font-family="Helvetica,sans-Serif" font-size="10.00">put1</text>
</a>
</g>
</g>
<!-- Node1&#45;&gt;Node2 -->
<g id="edge1" class="edge"><title>Node1&#45;&gt;Node2</title>
<path fill="none" stroke="midnightblue" d="M34.8835,-76.6693C45.9619,-85.3196 62.4055,-98.1591 75.372,-108.284"/>
<polygon fill="midnightblue" stroke="midnightblue" points="73.2635,-111.078 83.2994,-114.474 77.5716,-105.56 73.2635,-111.078"/>
</g>
<!-- Node3 -->
<g id="node3" class="node"><title>Node3</title>
<g id="a_node3"><a xlink:href="xyz2b_8f.html#a621fc1743fc6d9bc9f3f3062167d2ddd" target="_top" xlink:title="put2">
<polygon fill="white" stroke="black" points="79,-76.5 79,-95.5 114,-95.5 114,-76.5 79,-76.5"/>
<text text-anchor="middle" x="96.5" y="-83.5" font-family="Helvetica,sans-Serif" font-size="10.00">put2</text>
</a>
</g>
</g>
<!-- Node1&#45;&gt;Node3 -->
<g id="edge2" class="edge"><title>Node1&#45;&gt;Node3</title>
<path fill="none" stroke="midnightblue" d="M43.2236,-72.3938C51.2549,-74.4842 60.5482,-76.903 69.0519,-79.1163"/>
<polygon fill="midnightblue" stroke="midnightblue" points="68.336,-82.5465 78.8952,-81.6782 70.0993,-75.7722 68.336,-82.5465"/>
</g>
<!-- Node4 -->
<g id="node4" class="node"><title>Node4</title>
<g id="a_node4"><a xlink:href="xyz2b_8f.html#aa012bf225e6a10a1e85dc0b15e3fa44e" target="_top" xlink:title="w1">
<polygon fill="white" stroke="black" points="82,-38.5 82,-57.5 111,-57.5 111,-38.5 82,-38.5"/>
<text text-anchor="middle" x="96.5" y="-45.5" font-family="Helvetica,sans-Serif" font-size="10.00">w1</text>
</a>
</g>
</g>
<!-- Node1&#45;&gt;Node4 -->
<g id="edge3" class="edge"><title>Node1&#45;&gt;Node4</title>
<path fill="none" stroke="midnightblue" d="M43.2236,-61.6062C52.1665,-59.2786 62.674,-56.5438 71.9139,-54.1388"/>
<polygon fill="midnightblue" stroke="midnightblue" points="72.8606,-57.5091 81.6566,-51.6031 71.0974,-50.7348 72.8606,-57.5091"/>
</g>
<!-- Node5 -->
<g id="node5" class="node"><title>Node5</title>
<g id="a_node5"><a xlink:href="xyz2b_8f.html#ac7edd4eecb126ebaf41db74abd5d1017" target="_top" xlink:title="w2">
<polygon fill="white" stroke="black" points="82,-0.5 82,-19.5 111,-19.5 111,-0.5 82,-0.5"/>
<text text-anchor="middle" x="96.5" y="-7.5" font-family="Helvetica,sans-Serif" font-size="10.00">w2</text>
</a>
</g>
</g>
<!-- Node1&#45;&gt;Node5 -->
<g id="edge4" class="edge"><title>Node1&#45;&gt;Node5</title>
<path fill="none" stroke="midnightblue" d="M34.8835,-57.3307C45.9619,-48.6804 62.4055,-35.8409 75.372,-25.7164"/>
<polygon fill="midnightblue" stroke="midnightblue" points="77.5716,-28.4395 83.2994,-19.5265 73.2635,-22.9222 77.5716,-28.4395"/>
</g>
</g>
</svg>
