<?xml version="1.0" encoding="UTF-8" standalone="no"?>
<!DOCTYPE svg PUBLIC "-//W3C//DTD SVG 1.1//EN"
 "http://www.w3.org/Graphics/SVG/1.1/DTD/svg11.dtd">
<!-- Generated by graphviz version 2.38.0 (20140413.2041)
 -->
<!-- Title: decimate Pages: 1 -->
<svg width="141pt" height="66pt"
 viewBox="0.00 0.00 141.00 66.00" xmlns="http://www.w3.org/2000/svg" xmlns:xlink="http://www.w3.org/1999/xlink">
<g id="graph0" class="graph" transform="scale(1 1) rotate(0) translate(4 62)">
<title>decimate</title>
<polygon fill="white" stroke="none" points="-4,4 -4,-62 137,-62 137,4 -4,4"/>
<!-- Node1 -->
<g id="node1" class="node"><title>Node1</title>
<polygon fill="#bfbfbf" stroke="black" points="0,-19.5 0,-38.5 56,-38.5 56,-19.5 0,-19.5"/>
<text text-anchor="middle" x="28" y="-26.5" font-family="Helvetica,sans-Serif" font-size="10.00">decimate</text>
</g>
<!-- Node2 -->
<g id="node2" class="node"><title>Node2</title>
<g id="a_node2"><a xlink:href="decimate_8f.html#ab477fa7d1ce06d1a51b6cff9405bcbfc" target="_top" xlink:title="inouti">
<polygon fill="white" stroke="black" points="92.5,-38.5 92.5,-57.5 132.5,-57.5 132.5,-38.5 92.5,-38.5"/>
<text text-anchor="middle" x="112.5" y="-45.5" font-family="Helvetica,sans-Serif" font-size="10.00">inouti</text>
</a>
</g>
</g>
<!-- Node1&#45;&gt;Node2 -->
<g id="edge1" class="edge"><title>Node1&#45;&gt;Node2</title>
<path fill="none" stroke="midnightblue" d="M56.0136,-35.2213C64.4327,-37.1603 73.7536,-39.3069 82.3144,-41.2785"/>
<polygon fill="midnightblue" stroke="midnightblue" points="81.7376,-44.7372 92.268,-43.5708 83.3087,-37.9157 81.7376,-44.7372"/>
</g>
<!-- Node3 -->
<g id="node3" class="node"><title>Node3</title>
<g id="a_node3"><a xlink:href="decimate_8f.html#a81eefdd18a0a10114372131927994d55" target="_top" xlink:title="inoutr">
<polygon fill="white" stroke="black" points="92,-0.5 92,-19.5 133,-19.5 133,-0.5 92,-0.5"/>
<text text-anchor="middle" x="112.5" y="-7.5" font-family="Helvetica,sans-Serif" font-size="10.00">inoutr</text>
</a>
</g>
</g>
<!-- Node1&#45;&gt;Node3 -->
<g id="edge2" class="edge"><title>Node1&#45;&gt;Node3</title>
<path fill="none" stroke="midnightblue" d="M56.0136,-22.7787C64.2991,-20.8705 73.458,-18.7612 81.9062,-16.8155"/>
<polygon fill="midnightblue" stroke="midnightblue" points="82.7929,-20.203 91.7523,-14.548 81.2219,-13.3816 82.7929,-20.203"/>
</g>
</g>
</svg>
