<?xml version="1.0" encoding="UTF-8" standalone="no"?>
<!DOCTYPE svg PUBLIC "-//W3C//DTD SVG 1.1//EN"
 "http://www.w3.org/Graphics/SVG/1.1/DTD/svg11.dtd">
<!-- Generated by graphviz version 2.38.0 (20140413.2041)
 -->
<!-- Title: getgridbounds Pages: 1 -->
<svg width="188pt" height="142pt"
 viewBox="0.00 0.00 188.00 142.00" xmlns="http://www.w3.org/2000/svg" xmlns:xlink="http://www.w3.org/1999/xlink">
<g id="graph0" class="graph" transform="scale(1 1) rotate(0) translate(4 138)">
<title>getgridbounds</title>
<polygon fill="white" stroke="none" points="-4,4 -4,-138 184,-138 184,4 -4,4"/>
<!-- Node1 -->
<g id="node1" class="node"><title>Node1</title>
<polygon fill="#bfbfbf" stroke="black" points="0,-57.5 0,-76.5 77,-76.5 77,-57.5 0,-57.5"/>
<text text-anchor="middle" x="38.5" y="-64.5" font-family="Helvetica,sans-Serif" font-size="10.00">getgridbounds</text>
</g>
<!-- Node2 -->
<g id="node2" class="node"><title>Node2</title>
<g id="a_node2"><a xlink:href="group__doers.html#gac9a2ad84815a01e9242386d75cfb3d08" target="_top" xlink:title="Part of the NADCON5 build process, generates gmtbat04 ">
<polygon fill="white" stroke="black" points="117,-114.5 117,-133.5 176,-133.5 176,-114.5 117,-114.5"/>
<text text-anchor="middle" x="146.5" y="-121.5" font-family="Helvetica,sans-Serif" font-size="10.00">checkgrid</text>
</a>
</g>
</g>
<!-- Node1&#45;&gt;Node2 -->
<g id="edge1" class="edge"><title>Node1&#45;&gt;Node2</title>
<path fill="none" stroke="midnightblue" d="M66.3767,-81.4525C85.6321,-91.8069 111.022,-105.46 127.784,-114.474"/>
<polygon fill="midnightblue" stroke="midnightblue" points="67.9465,-78.3228 57.4815,-76.6693 64.6312,-84.488 67.9465,-78.3228"/>
</g>
<!-- Node3 -->
<g id="node3" class="node"><title>Node3</title>
<g id="a_node3"><a xlink:href="group__doers.html#gaf03b9b1cd4fc369d51ac1e46b9231fc7" target="_top" xlink:title="Program to create a work file which will serve as the primary information needed to analyze and creat...">
<polygon fill="white" stroke="black" points="115.5,-76.5 115.5,-95.5 177.5,-95.5 177.5,-76.5 115.5,-76.5"/>
<text text-anchor="middle" x="146.5" y="-83.5" font-family="Helvetica,sans-Serif" font-size="10.00">makework</text>
</a>
</g>
</g>
<!-- Node1&#45;&gt;Node3 -->
<g id="edge2" class="edge"><title>Node1&#45;&gt;Node3</title>
<path fill="none" stroke="midnightblue" d="M87.0298,-75.5195C96.6266,-77.2397 106.465,-79.0032 115.269,-80.5812"/>
<polygon fill="midnightblue" stroke="midnightblue" points="87.6308,-72.0715 77.1701,-73.7522 86.3957,-78.9617 87.6308,-72.0715"/>
</g>
<!-- Node4 -->
<g id="node4" class="node"><title>Node4</title>
<g id="a_node4"><a xlink:href="group__doers.html#ga79d0be427fdfab9ef1456eaf0afab3da" target="_top" xlink:title="Program to filter Map Data for GMT Plotting. ">
<polygon fill="white" stroke="black" points="113,-38.5 113,-57.5 180,-57.5 180,-38.5 113,-38.5"/>
<text text-anchor="middle" x="146.5" y="-45.5" font-family="Helvetica,sans-Serif" font-size="10.00">mymedian5</text>
</a>
</g>
</g>
<!-- Node1&#45;&gt;Node4 -->
<g id="edge3" class="edge"><title>Node1&#45;&gt;Node4</title>
<path fill="none" stroke="midnightblue" d="M87.2117,-58.4479C95.8885,-56.8926 104.756,-55.3031 112.872,-53.8484"/>
<polygon fill="midnightblue" stroke="midnightblue" points="86.3957,-55.0383 77.1701,-60.2478 87.6308,-61.9285 86.3957,-55.0383"/>
</g>
<!-- Node5 -->
<g id="node5" class="node"><title>Node5</title>
<g id="a_node5"><a xlink:href="group__doers.html#ga5baa6ad756ca0a7d136baa7644c5696b" target="_top" xlink:title="Part of the NADCON5 build process, generates gmtbat05 ">
<polygon fill="white" stroke="black" points="123,-0.5 123,-19.5 170,-19.5 170,-0.5 123,-0.5"/>
<text text-anchor="middle" x="146.5" y="-7.5" font-family="Helvetica,sans-Serif" font-size="10.00">myrms</text>
</a>
</g>
</g>
<!-- Node1&#45;&gt;Node5 -->
<g id="edge4" class="edge"><title>Node1&#45;&gt;Node5</title>
<path fill="none" stroke="midnightblue" d="M66.3767,-52.5475C85.6321,-42.1931 111.022,-28.54 127.784,-19.5265"/>
<polygon fill="midnightblue" stroke="midnightblue" points="64.6312,-49.512 57.4815,-57.3307 67.9465,-55.6772 64.6312,-49.512"/>
</g>
</g>
</svg>
