<?xml version="1.0" encoding="UTF-8" standalone="no"?>
<!DOCTYPE svg PUBLIC "-//W3C//DTD SVG 1.1//EN"
 "http://www.w3.org/Graphics/SVG/1.1/DTD/svg11.dtd">
<!-- Generated by graphviz version 2.38.0 (20140413.2041)
 -->
<!-- Title: bwplotcv Pages: 1 -->
<svg width="185pt" height="104pt"
 viewBox="0.00 0.00 185.00 104.00" xmlns="http://www.w3.org/2000/svg" xmlns:xlink="http://www.w3.org/1999/xlink">
<g id="graph0" class="graph" transform="scale(1 1) rotate(0) translate(4 100)">
<title>bwplotcv</title>
<polygon fill="white" stroke="none" points="-4,4 -4,-100 181,-100 181,4 -4,4"/>
<!-- Node1 -->
<g id="node1" class="node"><title>Node1</title>
<polygon fill="#bfbfbf" stroke="black" points="0,-38.5 0,-57.5 56,-57.5 56,-38.5 0,-38.5"/>
<text text-anchor="middle" x="28" y="-45.5" font-family="Helvetica,sans-Serif" font-size="10.00">bwplotcv</text>
</g>
<!-- Node2 -->
<g id="node2" class="node"><title>Node2</title>
<g id="a_node2"><a xlink:href="group__doers.html#gaf6a79a4e301f7aef2eee8c8faf772330" target="_top" xlink:title="Part of the NADCON5 process, generates gmtbat01. ">
<polygon fill="white" stroke="black" points="92,-76.5 92,-95.5 177,-95.5 177,-76.5 92,-76.5"/>
<text text-anchor="middle" x="134.5" y="-83.5" font-family="Helvetica,sans-Serif" font-size="10.00">makeplotfiles01</text>
</a>
</g>
</g>
<!-- Node1&#45;&gt;Node2 -->
<g id="edge1" class="edge"><title>Node1&#45;&gt;Node2</title>
<path fill="none" stroke="midnightblue" d="M65.0745,-61.118C78.8959,-66.1439 94.3925,-71.7791 107.139,-76.4141"/>
<polygon fill="midnightblue" stroke="midnightblue" points="65.9638,-57.7172 55.3698,-57.589 63.5716,-64.2958 65.9638,-57.7172"/>
</g>
<!-- Node3 -->
<g id="node3" class="node"><title>Node3</title>
<g id="a_node3"><a xlink:href="group__doers.html#gad0e3b2b69516341289fa5d05bec700bd" target="_top" xlink:title="Part of the NADCON5 process, generates gmtbat03 ">
<polygon fill="white" stroke="black" points="92,-38.5 92,-57.5 177,-57.5 177,-38.5 92,-38.5"/>
<text text-anchor="middle" x="134.5" y="-45.5" font-family="Helvetica,sans-Serif" font-size="10.00">makeplotfiles02</text>
</a>
</g>
</g>
<!-- Node1&#45;&gt;Node3 -->
<g id="edge2" class="edge"><title>Node1&#45;&gt;Node3</title>
<path fill="none" stroke="midnightblue" d="M66.3109,-48C74.5926,-48 83.4209,-48 91.8634,-48"/>
<polygon fill="midnightblue" stroke="midnightblue" points="66.1834,-44.5001 56.1833,-48 66.1833,-51.5001 66.1834,-44.5001"/>
</g>
<!-- Node4 -->
<g id="node4" class="node"><title>Node4</title>
<g id="a_node4"><a xlink:href="group__doers.html#ga5ba1fe4d681ced83528f69e465a2676f" target="_top" xlink:title="Part of the NADCON5 process, generates gmtbat06 ">
<polygon fill="white" stroke="black" points="92,-0.5 92,-19.5 177,-19.5 177,-0.5 92,-0.5"/>
<text text-anchor="middle" x="134.5" y="-7.5" font-family="Helvetica,sans-Serif" font-size="10.00">makeplotfiles03</text>
</a>
</g>
</g>
<!-- Node1&#45;&gt;Node4 -->
<g id="edge3" class="edge"><title>Node1&#45;&gt;Node4</title>
<path fill="none" stroke="midnightblue" d="M65.0745,-34.882C78.8959,-29.8561 94.3925,-24.2209 107.139,-19.5859"/>
<polygon fill="midnightblue" stroke="midnightblue" points="63.5716,-31.7042 55.3698,-38.411 65.9638,-38.2828 63.5716,-31.7042"/>
</g>
</g>
</svg>
