<?xml version="1.0" encoding="UTF-8" standalone="no"?>
<!DOCTYPE svg PUBLIC "-//W3C//DTD SVG 1.1//EN"
 "http://www.w3.org/Graphics/SVG/1.1/DTD/svg11.dtd">
<!-- Generated by graphviz version 2.38.0 (20140413.2041)
 -->
<!-- Title: coplot Pages: 1 -->
<svg width="172pt" height="66pt"
 viewBox="0.00 0.00 172.00 66.00" xmlns="http://www.w3.org/2000/svg" xmlns:xlink="http://www.w3.org/1999/xlink">
<g id="graph0" class="graph" transform="scale(1 1) rotate(0) translate(4 62)">
<title>coplot</title>
<polygon fill="white" stroke="none" points="-4,4 -4,-62 168,-62 168,4 -4,4"/>
<!-- Node1 -->
<g id="node1" class="node"><title>Node1</title>
<polygon fill="#bfbfbf" stroke="black" points="0,-19.5 0,-38.5 43,-38.5 43,-19.5 0,-19.5"/>
<text text-anchor="middle" x="21.5" y="-26.5" font-family="Helvetica,sans-Serif" font-size="10.00">coplot</text>
</g>
<!-- Node2 -->
<g id="node2" class="node"><title>Node2</title>
<g id="a_node2"><a xlink:href="group__doers.html#gad0e3b2b69516341289fa5d05bec700bd" target="_top" xlink:title="Part of the NADCON5 process, generates gmtbat03 ">
<polygon fill="white" stroke="black" points="79,-38.5 79,-57.5 164,-57.5 164,-38.5 79,-38.5"/>
<text text-anchor="middle" x="121.5" y="-45.5" font-family="Helvetica,sans-Serif" font-size="10.00">makeplotfiles02</text>
</a>
</g>
</g>
<!-- Node1&#45;&gt;Node2 -->
<g id="edge1" class="edge"><title>Node1&#45;&gt;Node2</title>
<path fill="none" stroke="midnightblue" d="M53.3515,-34.9814C61.4127,-36.5443 70.237,-38.2551 78.7615,-39.9078"/>
<polygon fill="midnightblue" stroke="midnightblue" points="53.7667,-31.4968 43.2833,-33.0294 52.4343,-38.3688 53.7667,-31.4968"/>
</g>
<!-- Node3 -->
<g id="node3" class="node"><title>Node3</title>
<g id="a_node3"><a xlink:href="group__doers.html#ga5ba1fe4d681ced83528f69e465a2676f" target="_top" xlink:title="Part of the NADCON5 process, generates gmtbat06 ">
<polygon fill="white" stroke="black" points="79,-0.5 79,-19.5 164,-19.5 164,-0.5 79,-0.5"/>
<text text-anchor="middle" x="121.5" y="-7.5" font-family="Helvetica,sans-Serif" font-size="10.00">makeplotfiles03</text>
</a>
</g>
</g>
<!-- Node1&#45;&gt;Node3 -->
<g id="edge2" class="edge"><title>Node1&#45;&gt;Node3</title>
<path fill="none" stroke="midnightblue" d="M53.3515,-23.0186C61.4127,-21.4557 70.237,-19.7449 78.7615,-18.0922"/>
<polygon fill="midnightblue" stroke="midnightblue" points="52.4343,-19.6312 43.2833,-24.9706 53.7667,-26.5032 52.4343,-19.6312"/>
</g>
</g>
</svg>
